<?xml version="1.0" encoding="utf-8"?>
<!-- Generator: Adobe Illustrator 23.1.0, SVG Export Plug-In . SVG Version: 6.00 Build 0)  -->
<svg version="1.1" xmlns="http://www.w3.org/2000/svg" xmlns:xlink="http://www.w3.org/1999/xlink" x="0px" y="0px"
	 viewBox="0 0 500 500" style="enable-background:new 0 0 500 500;" xml:space="preserve">
<style type="text/css">
	.st0{display:none;}
	.st1{fill:#F2F2F2;}
	.st2{fill:#FFFFFF;}
	.st3{fill:#FFE05F;}
	.st4{fill:none;}
	.st5{font-family:'Matiz';}
	.st6{font-size:32.9889px;}
</style>
<g id="BACKGROUND" class="st0">
	<rect class="st1" width="500" height="500"/>
</g>
<g id="OBJECTS">
	<circle class="st2" cx="250" cy="250" r="158.7"/>
	<g>
		<path class="st3" d="M57.65,285.35c0.03-0.65,0.1-1.31,0.14-1.96c0.07-0.65,0.17-1.3,0.25-1.95c0.25-1.28,0.46-2.57,0.83-3.82
			c0.3-1.27,0.76-2.49,1.19-3.72l0.76-1.79l0.19-0.45l0.22-0.43l0.44-0.86c1.2-2.28,2.6-4.45,4.27-6.38
			c1.64-1.94,3.46-3.72,5.47-5.23l0.74-0.58c0.25-0.18,0.51-0.36,0.77-0.53c0.52-0.35,1.03-0.71,1.55-1.05
			c1.08-0.62,2.12-1.31,3.25-1.83c2.19-1.17,4.51-2.02,6.83-2.83c0,0,0,0,0,0l0,0l0,0c0.02-0.02,0.03-0.05,0.05-0.07
			c-0.01-0.5,0.13-1,0.44-1.38l-1.88-0.51l7.71-15.31l21.07,4.96l29.61-13.8l50.42-101.97l48.4,12.59l23.25,24.35h38.38l11.57,12.12
			h15.18v32.46h-0.06c0.31,0.81,0.12,1.85-0.57,2.38c2.67,0.68,5.13,1.99,6.94,3.8c2.04,2.03,3.11,4.53,3.11,7.24
			c0,6.56-4.69,12.04-10.91,12.76l-56.81,6.59c-0.45,0.05-0.9,0.08-1.35,0.08c-3,0-5.92-1.16-8.18-3.27
			c-1.59-1.49-2.75-3.37-3.42-5.44l-23.77,2.65c-0.48,0.05-0.94,0.08-1.37,0.08c-6.75,0-12.24-5.55-12.24-12.36
			c0-8.57,6.65-15.62,15.16-16.04l13.31-0.37v-37.26l-16.52-17.31l-32.16-8.66l-39.97,91.66l5.41-2.84c3.25-1.7,7.22-0.32,8.85,3.08
			l1.28,2.67c1.63,3.4,0.31,7.56-2.94,9.27l-12.87,6.76l1.21,0.28l-0.31,0.92c0.08,0.02,0.16,0.05,0.24,0.08
			c1.34,0.39,2.69,0.77,4.03,1.17c1.45,0.42,2.89,0.86,4.33,1.3c0.18,0.06,0.3,0.25,0.25,0.45l-0.01,0.03
			c-1.53,7.1-2.45,14.33-2.44,21.55c0.01,1.81,0.06,3.61,0.19,5.41c0.04,0.9,0.14,1.8,0.22,2.69c0.04,0.45,0.08,0.9,0.13,1.34
			l0.18,1.34l0.18,1.34c0.06,0.45,0.15,0.89,0.22,1.33l0.23,1.33l0.12,0.66l0.14,0.66c0.2,0.88,0.37,1.76,0.57,2.63l0.67,2.61
			c0.94,3.47,2.17,6.84,3.69,10.03c0.67,1.36,1.42,2.67,2.25,3.92l6.55-4.73l12.33,3.08l-11.55,8.57c0.26,0.15,0.52,0.3,0.78,0.44
			c1,0.53,2.04,0.98,3.11,1.37l6.24-4.3l6.79-4.64l0.11-0.07l0.14,0.02l13.24,2.14l1.15,0.19l-0.84,0.88
			c-6.99,7.26-14.98,13.48-23.68,18.39c-4.36,2.44-8.87,4.55-13.53,6.34c-2.34,0.87-4.71,1.63-7.1,2.29
			c-0.6,0.16-1.19,0.34-1.8,0.49l-1.81,0.44c-1.2,0.31-2.42,0.54-3.63,0.8c-4.86,0.97-9.78,1.6-14.71,1.92l-3.71,0.14
			c-0.62,0.04-1.24,0.03-1.86,0.02l-1.86-0.02l-1.86-0.02c-0.62,0-1.24-0.06-1.85-0.09l-3.71-0.22c-1.23-0.11-2.46-0.27-3.69-0.4
			l-1.85-0.21c-0.62-0.07-1.22-0.19-1.84-0.29l-3.67-0.61c-0.61-0.09-1.22-0.24-1.82-0.37l-1.81-0.41c-1.2-0.28-2.43-0.54-3.62-0.85
			c-1.19-0.31-2.38-0.63-3.57-0.95c-2.38-0.65-4.76-1.35-7.11-2.13c-4.71-1.54-9.36-3.35-13.86-5.56
			c-4.48-2.23-8.82-4.82-12.82-7.95c-4.01-3.1-7.67-6.74-10.73-10.89c-1.51-2.09-2.88-4.29-4.08-6.6l-0.84-1.76
			c-0.28-0.57-0.56-1.21-0.78-1.82c-0.46-1.24-0.85-2.48-1.19-3.74C58.13,295.81,57.42,290.59,57.65,285.35z"/>
		<g>
			<path class="st4" d="M317.1,175.65h-12.26c-0.56,0-1.01-0.47-1.01-1.06v-8.95c0-0.58,0.45-1.06,1.01-1.06h12.26
				c0.56,0,1.01,0.47,1.01,1.06v8.95C318.11,175.17,317.66,175.65,317.1,175.65z"/>
			<path class="st4" d="M296.79,184.28h-10.05c-0.87,0-1.58-0.74-1.58-1.66v-16.45c0-0.91,0.71-1.66,1.58-1.66h10.05
				c0.87,0,1.58,0.74,1.58,1.66v16.45C298.37,183.54,297.66,184.28,296.79,184.28z"/>
			<path class="st4" d="M304.06,180.1h11.78c0.41,0,0.76,0.22,0.95,0.6c0.19,0.38,0.17,0.81-0.06,1.16l-6,9.24
				c-0.08,0.12-0.21,0.2-0.35,0.2h-6.32c-0.24,0-0.43-0.2-0.43-0.45v-10.3C303.63,180.3,303.82,180.1,304.06,180.1z"/>
			<polygon class="st4" points="133.2,236.89 158.31,225.19 150.51,240.96 			"/>
			<path class="st4" d="M156.05,242.26l20.76-10.91l0.02,0.01l0.01-0.03l7.52-3.95c2.31-1.21,5.14-0.23,6.3,2.19l1.28,2.67
				c1.16,2.42,0.22,5.39-2.09,6.6l-14.94,7.84L156.05,242.26z"/>
			<path class="st4" d="M197.79,312.95c-1.29-1.11-2.43-2.43-3.42-3.86c-0.07-0.1-0.13-0.2-0.2-0.3l6.41-4.62l11.35,2.84
				l-11.02,8.17C199.82,314.52,198.78,313.75,197.79,312.95z"/>
			<path class="st4" d="M175.4,229.88l41.28-94.67l0.33-0.76l34.2,9.21l17.45,18.27v38h76.36v-28.49h-14.06l-11.57-12.12H281
				l-23.44-24.55l-46.44-12.07l-58.7,118.71l1.1,0.26c0.45-0.44,0.96-0.81,1.52-1.1L175.4,229.88z M299.51,182.62
				c0,1.57-1.22,2.85-2.72,2.85h-10.05c-1.5,0-2.72-1.28-2.72-2.85v-16.45c0-1.57,1.22-2.85,2.72-2.85h10.05
				c1.5,0,2.72,1.28,2.72,2.85V182.62z M319.25,174.59c0,1.24-0.96,2.25-2.15,2.25h-12.26c-1.18,0-2.15-1.01-2.15-2.25v-8.95
				c0-1.24,0.96-2.25,2.15-2.25h12.26c1.18,0,2.15,1.01,2.15,2.25V174.59z M304.06,178.91h11.78c0.82,0,1.57,0.47,1.96,1.23
				c0.38,0.76,0.34,1.68-0.13,2.39l-6,9.24c-0.29,0.45-0.78,0.72-1.29,0.72h-6.32c-0.86,0-1.57-0.74-1.57-1.64v-10.3
				C302.49,179.64,303.19,178.91,304.06,178.91z M341.45,175.18c-0.82,0.25-1.63,0.37-2.45,0.47c-0.82,0.09-1.63,0.13-2.45,0.13
				c-0.82,0-1.63-0.04-2.45-0.13c-0.82-0.09-1.63-0.22-2.45-0.47c0.82-0.25,1.63-0.37,2.45-0.47c0.82-0.09,1.63-0.13,2.45-0.13
				c0.82,0,1.63,0.04,2.45,0.13C339.82,174.81,340.64,174.93,341.45,175.18z M341.45,178c-0.82,0.25-1.63,0.37-2.45,0.47
				c-0.82,0.09-1.63,0.13-2.45,0.13c-0.82,0-1.63-0.04-2.45-0.13c-0.82-0.09-1.63-0.22-2.45-0.47c0.82-0.25,1.63-0.37,2.45-0.47
				c0.82-0.09,1.63-0.13,2.45-0.13c0.82,0,1.63,0.04,2.45,0.13C339.82,177.62,340.64,177.75,341.45,178z M341.45,180.92
				c-0.82,0.25-1.63,0.37-2.45,0.47c-0.82,0.09-1.63,0.13-2.45,0.13c-0.82,0-1.63-0.04-2.45-0.13c-0.82-0.09-1.63-0.22-2.45-0.47
				c0.82-0.25,1.63-0.37,2.45-0.47c0.82-0.09,1.63-0.13,2.45-0.13c0.82,0,1.63,0.04,2.45,0.13
				C339.82,180.55,340.64,180.68,341.45,180.92z M341.45,183.29c-0.82,0.25-1.63,0.37-2.45,0.47c-0.82,0.09-1.63,0.13-2.45,0.13
				c-0.82,0-1.63-0.04-2.45-0.13c-0.82-0.09-1.63-0.22-2.45-0.47c0.82-0.25,1.63-0.37,2.45-0.47c0.82-0.09,1.63-0.13,2.45-0.13
				c0.82,0,1.63,0.04,2.45,0.13C339.82,182.92,340.64,183.04,341.45,183.29z M341.45,186.33c-0.82,0.25-1.63,0.37-2.45,0.47
				c-0.82,0.09-1.63,0.13-2.45,0.13c-0.82,0-1.63-0.04-2.45-0.13c-0.82-0.09-1.63-0.22-2.45-0.47c0.82-0.25,1.63-0.37,2.45-0.47
				c0.82-0.09,1.63-0.13,2.45-0.13c0.82,0,1.63,0.04,2.45,0.13C339.82,185.96,340.64,186.08,341.45,186.33z M334.12,188.53
				c0.82-0.08,1.63-0.11,2.45-0.1c0.82,0.01,1.63,0.06,2.44,0.16c0.81,0.1,1.63,0.24,2.44,0.49c-0.82,0.24-1.63,0.35-2.45,0.44
				c-0.82,0.08-1.63,0.11-2.45,0.1c-0.82-0.01-1.63-0.06-2.44-0.15c-0.81-0.1-1.63-0.24-2.44-0.5
				C332.49,188.74,333.31,188.62,334.12,188.53z M341.45,191.68c-0.82,0.24-1.63,0.35-2.45,0.44c-0.82,0.08-1.63,0.11-2.45,0.1
				c-0.82-0.01-1.63-0.06-2.44-0.15c-0.81-0.1-1.63-0.24-2.44-0.5c0.82-0.24,1.63-0.36,2.45-0.44c0.82-0.08,1.63-0.11,2.45-0.1
				c0.82,0.01,1.63,0.06,2.44,0.16C339.83,191.29,340.64,191.42,341.45,191.68z M275.96,195.16c5.43-0.17,10.85-0.19,16.28-0.15
				c2.71,0,5.42,0.07,8.13,0.1l8.13,0.19l8.13,0.28c2.71,0.12,5.42,0.22,8.13,0.37c5.42,0.27,10.83,0.6,16.25,1.08
				c-5.43,0.17-10.85,0.19-16.28,0.15c-2.71,0-5.42-0.07-8.13-0.1l-8.13-0.19l-8.13-0.28c-2.71-0.12-5.42-0.21-8.13-0.37
				C286.78,195.97,281.37,195.64,275.96,195.16z M255.53,143.63c1.33,1.07,2.59,2.22,3.81,3.4c1.22,1.18,2.42,2.39,3.58,3.64
				l1.72,1.89c0.56,0.64,1.13,1.27,1.68,1.93c1.1,1.3,2.18,2.64,3.18,4.05c-1.33-1.07-2.58-2.22-3.81-3.41
				c-0.62-0.58-1.21-1.2-1.81-1.8l-1.77-1.84c-1.17-1.24-2.3-2.52-3.4-3.82C257.6,146.39,256.53,145.05,255.53,143.63z
				 M219.19,131.04c2.79,0.46,5.55,1.08,8.29,1.75c1.37,0.32,2.73,0.7,4.1,1.05l4.08,1.13l4.06,1.22c1.34,0.43,2.7,0.84,4.03,1.3
				c2.68,0.89,5.35,1.84,7.98,2.94c-2.79-0.47-5.55-1.08-8.29-1.75c-1.37-0.32-2.73-0.7-4.1-1.05l-4.08-1.13l-4.06-1.21
				c-1.34-0.43-2.7-0.84-4.03-1.3C224.49,133.09,221.82,132.14,219.19,131.04z M195,175.44c1.07-3.33,2.32-6.58,3.62-9.8
				c1.29-3.22,2.67-6.41,4.1-9.56c1.43-3.16,2.91-6.29,4.48-9.38c1.56-3.09,3.17-6.16,4.96-9.14c-1.08,3.33-2.32,6.58-3.63,9.8
				c-1.29,3.22-2.67,6.41-4.1,9.57c-1.43,3.16-2.91,6.29-4.48,9.38C198.41,169.4,196.79,172.46,195,175.44z M177.11,218.04
				c-1.93,4-3.92,7.98-6.12,11.85c1.34-4.29,2.88-8.47,4.49-12.63c1.62-4.15,3.31-8.27,5.09-12.35c1.77-4.08,3.61-8.13,5.53-12.13
				c1.93-4,3.92-7.98,6.12-11.85c-1.34,4.28-2.89,8.47-4.49,12.63c-1.62,4.15-3.31,8.27-5.08,12.35
				C180.87,209.99,179.03,214.03,177.11,218.04z"/>
			<path class="st4" d="M344.92,219.32c-1.96,0-3.55-1.67-3.55-3.72c0-2.05,1.59-3.72,3.55-3.72s3.55,1.67,3.55,3.72
				C348.47,217.65,346.88,219.32,344.92,219.32z"/>
			<path class="st4" d="M276.9,221.93c0,3.08,1.26,6.03,3.45,8.09c2.19,2.06,5.13,3.04,8.05,2.7l56.81-6.59
				c5.26-0.61,9.22-5.25,9.22-10.79c0-2.15-0.87-4.16-2.52-5.8c-2.33-2.33-6.08-3.77-9.71-3.77c-0.23,0-0.47,0.01-0.7,0.02
				l-51.27,1.47C282.76,207.65,276.9,214.09,276.9,221.93z M287.52,211.53c0.7,0,1.41,0.04,2.11,0.13c0.7,0.09,1.41,0.22,2.11,0.47
				c-0.7,0.25-1.41,0.37-2.11,0.47c-0.7,0.09-1.41,0.13-2.11,0.13c-0.7,0-1.41-0.04-2.11-0.13c-0.7-0.09-1.41-0.22-2.11-0.47
				c0.7-0.25,1.41-0.38,2.11-0.47C286.11,211.57,286.82,211.53,287.52,211.53z M296.42,209.5c-0.7,0.25-1.41,0.37-2.11,0.47
				c-0.7,0.09-1.41,0.13-2.11,0.13c-0.7,0-1.41-0.04-2.11-0.13c-0.7-0.09-1.41-0.22-2.11-0.47c0.7-0.25,1.41-0.38,2.11-0.47
				c0.7-0.09,1.41-0.13,2.11-0.13c0.7,0,1.41,0.04,2.11,0.13C295.01,209.12,295.71,209.25,296.42,209.5z M349.61,215.6
				c0,2.71-2.1,4.91-4.69,4.91c-2.59,0-4.69-2.2-4.69-4.91c0-2.71,2.1-4.91,4.69-4.91C347.5,210.68,349.61,212.89,349.61,215.6z
				 M309.15,227.09c-4.99-0.48-9.95-1.35-14.78-2.7c4.95,0.7,9.9,1.22,14.86,1.47c2.48,0.11,4.96,0.19,7.44,0.16l1.86-0.02
				l1.86-0.04c1.23-0.04,2.47-0.12,3.7-0.22c2.47-0.18,4.94-0.45,7.41-0.74c2.47-0.28,4.94-0.63,7.4-0.96
				c1.23-0.17,2.46-0.37,3.69-0.56c0.61-0.1,1.23-0.2,1.83-0.32c0.29-0.06,0.63-0.13,0.84-0.19c0.28-0.12,0.56-0.23,0.84-0.37
				c1.11-0.52,2.17-1.19,3.19-1.93c0.51-0.37,1.01-0.76,1.48-1.17c0.48-0.41,0.95-0.84,1.34-1.35c-0.68,1.11-1.62,2.01-2.57,2.87
				c-0.48,0.43-0.98,0.83-1.5,1.21c-0.52,0.38-1.05,0.74-1.61,1.06c-0.28,0.17-0.57,0.31-0.86,0.45c-0.19,0.08-0.34,0.12-0.5,0.17
				l-0.46,0.13c-0.61,0.16-1.23,0.31-1.84,0.45c-1.22,0.28-2.46,0.52-3.69,0.76c-4.92,0.94-9.88,1.65-14.89,2.07
				C319.17,227.69,314.15,227.57,309.15,227.09z M294.68,227.74c-0.91-0.23-1.82-0.54-2.69-0.98c-0.86-0.44-1.7-1.03-2.37-1.84
				c-0.67-0.8-1.13-1.82-1.29-2.87c-0.09-0.53-0.1-1.06-0.11-1.53c-0.01-0.5,0.01-1.01,0.07-1.53c0.13-1.02,0.43-2.08,1.01-2.98
				c0.56-0.91,1.34-1.63,2.17-2.19c0.83-0.57,1.72-0.97,2.61-1.31c0.9-0.34,1.8-0.6,2.71-0.83c1.82-0.44,3.66-0.73,5.49-0.95
				c7.32-0.66,14.59-1.14,21.9-1.61c7.3-0.46,14.6-0.87,21.91-1.12c-7.26,0.91-14.54,1.66-21.82,2.36c-3.64,0.36-7.28,0.67-10.92,1
				l-5.46,0.46l-2.73,0.23l-1.37,0.11l-1.34,0.15c-1.8,0.21-3.59,0.48-5.33,0.89c-1.73,0.42-3.45,0.97-4.89,1.89
				c-0.72,0.46-1.34,1.03-1.79,1.72c-0.46,0.68-0.72,1.5-0.84,2.37c-0.06,0.44-0.08,0.88-0.09,1.34c0.01,0.48,0,0.91,0.06,1.33
				c0.11,0.84,0.43,1.63,0.95,2.29c0.51,0.66,1.2,1.19,1.97,1.62c0.76,0.42,1.59,0.74,2.45,1c1.71,0.52,3.51,0.79,5.31,0.97
				c3.61,0.38,7.28,0.34,10.93,0.56c-3.65,0.13-7.31,0.38-10.99,0.21C298.35,228.4,296.51,228.2,294.68,227.74z M285.14,230.06
				c0.7-0.25,1.41-0.38,2.11-0.47c0.7-0.09,1.41-0.13,2.11-0.13c0.7,0,1.41,0.04,2.11,0.13c0.7,0.09,1.41,0.22,2.11,0.47
				c-0.7,0.25-1.41,0.37-2.11,0.47c-0.7,0.09-1.41,0.13-2.11,0.13c-0.7,0-1.41-0.04-2.11-0.13
				C286.55,230.44,285.84,230.31,285.14,230.06z M281.52,228.14c0.7-0.25,1.41-0.38,2.11-0.47c0.7-0.09,1.41-0.13,2.11-0.13
				c0.7,0,1.41,0.04,2.11,0.13c0.7,0.09,1.41,0.22,2.11,0.47c-0.7,0.25-1.41,0.37-2.11,0.47c-0.7,0.09-1.41,0.13-2.11,0.13
				c-0.7,0-1.41-0.04-2.11-0.13C282.93,228.52,282.22,228.39,281.52,228.14z M280.16,225.75c0.7-0.25,1.41-0.38,2.11-0.47
				c0.7-0.09,1.41-0.13,2.11-0.13c0.7,0,1.41,0.04,2.11,0.13c0.7,0.09,1.41,0.22,2.11,0.47c-0.7,0.25-1.41,0.37-2.11,0.47
				c-0.7,0.09-1.41,0.13-2.11,0.13c-0.7,0-1.41-0.04-2.11-0.13C281.57,226.12,280.86,225.99,280.16,225.75z M279.51,223.35
				c0.7-0.25,1.41-0.38,2.11-0.47c0.7-0.09,1.41-0.13,2.11-0.13c0.7,0,1.41,0.04,2.11,0.13c0.7,0.09,1.41,0.22,2.11,0.47
				c-0.7,0.25-1.41,0.37-2.11,0.47c-0.7,0.09-1.41,0.13-2.11,0.13c-0.7,0-1.41-0.04-2.11-0.13
				C280.92,223.73,280.22,223.6,279.51,223.35z M279.07,220.45c0.7-0.25,1.41-0.38,2.11-0.47c0.7-0.09,1.41-0.13,2.11-0.13
				c0.7,0,1.41,0.04,2.11,0.13c0.7,0.09,1.41,0.22,2.11,0.47c-0.7,0.25-1.41,0.37-2.11,0.47c-0.7,0.09-1.41,0.13-2.11,0.13
				c-0.7,0-1.41-0.04-2.11-0.13C280.48,220.83,279.77,220.7,279.07,220.45z M279.07,217.6c0.7-0.25,1.41-0.38,2.11-0.47
				c0.7-0.09,1.41-0.13,2.11-0.13c0.7,0,1.41,0.04,2.11,0.13c0.7,0.09,1.41,0.22,2.11,0.47c-0.7,0.25-1.41,0.37-2.11,0.47
				c-0.7,0.09-1.41,0.13-2.11,0.13c-0.7,0-1.41-0.04-2.11-0.13C280.48,217.98,279.77,217.85,279.07,217.6z M280.72,214.75
				c0.7-0.25,1.41-0.38,2.11-0.47c0.7-0.09,1.41-0.13,2.11-0.13c0.7,0,1.41,0.04,2.11,0.13c0.7,0.09,1.41,0.22,2.11,0.47
				c-0.7,0.25-1.41,0.37-2.11,0.47c-0.7,0.09-1.41,0.13-2.11,0.13c-0.7,0-1.41-0.04-2.11-0.13
				C282.12,215.13,281.42,215,280.72,214.75z"/>
			<polygon class="st4" points="171.84,263.41 104.11,245.22 110.03,233.47 176.57,249.12 			"/>
			<path d="M124.33,318.8c-2.71-4.06-4.48-8.83-5.05-13.73c-0.6-4.89-0.03-9.88,1.51-14.43c-0.78,4.76-0.89,9.57-0.06,14.19
				c0.84,4.62,2.59,9.01,5.15,12.83c2.56,3.83,5.87,7.08,9.65,9.65c3.78,2.57,8.01,4.43,12.45,5.73c-4.59-0.48-9.13-1.98-13.21-4.4
				C130.67,326.23,127.04,322.86,124.33,318.8z"/>
			<path d="M102.42,297c0.81,4.62,2.42,9.04,4.7,13.06c2.27,4.03,5.2,7.64,8.54,10.81c3.34,3.18,7.14,5.83,11.11,8.24
				c-4.31-1.66-8.43-4-12.07-7.06c-3.65-3.03-6.83-6.74-9.21-10.98c-2.39-4.23-3.99-8.97-4.53-13.85
				c-0.55-4.87-0.05-9.86,1.58-14.37C101.67,287.58,101.63,292.37,102.42,297z"/>
			<path d="M115.02,314.24c-2.27-4.26-3.76-8.96-4.42-13.75c-0.67-4.79-0.53-9.7,0.5-14.36c-0.25,4.77,0.03,9.5,0.95,14.09
				c0.93,4.58,2.46,9,4.63,13.05c2.16,4.06,4.95,7.74,8.3,10.8c3.36,3.06,7.28,5.45,11.57,7.09c-4.5-0.83-8.83-2.92-12.5-5.89
				C120.34,322.33,117.28,318.5,115.02,314.24z"/>
			<path d="M96.61,303.46c1.77,3.94,3.94,7.68,6.52,11.11c2.6,3.4,5.59,6.52,9.25,8.81c-2.01-0.75-3.88-1.91-5.61-3.24
				c-1.72-1.35-3.32-2.89-4.76-4.57c-2.9-3.34-5.27-7.18-7.11-11.27c-1.82-4.09-3.14-8.47-3.65-12.97
				c-0.27-2.25-0.32-4.52-0.13-6.77c0.21-2.24,0.65-4.47,1.44-6.54c-0.8,4.38-0.62,8.8,0.14,13.08
				C93.49,295.38,94.85,299.52,96.61,303.46z"/>
			<path d="M87.51,297.19c1.26,3.46,2.86,6.79,4.78,9.92c1.93,3.13,4.17,6.05,6.77,8.72c-3.09-2.02-5.76-4.77-7.98-7.83
				c-2.23-3.07-4.03-6.49-5.34-10.11c-1.31-3.62-2.14-7.44-2.35-11.29c-0.23-3.85,0.15-7.75,1.28-11.38
				c-0.36,3.79-0.3,7.55,0.19,11.23C85.36,290.13,86.25,293.73,87.51,297.19z"/>
			<path d="M178.51,282.71c0.02-1.1,0.05-2.21,0.13-3.32c0.27-4.44,1.05-8.83,2.43-13.01c-0.61,4.36-0.96,8.71-0.95,13.05
				c0.03,2.16,0.08,4.37,0.21,6.51c0.14,2.16,0.36,4.3,0.74,6.41c0.72,4.23,2.02,8.34,3.75,12.26c1.76,3.91,3.99,7.6,6.57,11.09
				c-6.29-5.87-10.65-14.15-12.18-22.98c-0.39-2.21-0.6-4.44-0.68-6.67C178.49,284.93,178.49,283.82,178.51,282.71z"/>
			<path d="M139.35,316.4c-0.69-1.18-1.29-2.42-1.77-3.72c-0.24-0.65-0.46-1.32-0.61-1.99l-0.25-1.01
				c-0.09-0.34-0.13-0.69-0.19-1.03c-0.27-1.37-0.34-2.78-0.35-4.19c0.05-1.4,0.14-2.81,0.43-4.19c0.51-2.77,1.55-5.39,2.82-7.84
				c1.31-2.43,2.91-4.66,4.67-6.71c1.78-2.04,3.7-3.92,5.75-5.62c4.09-3.41,8.58-6.24,13.31-8.46c-4.35,2.94-8.54,6.08-12.36,9.64
				c-1.89,1.8-3.72,3.65-5.36,5.68c-1.64,2.02-3.15,4.14-4.36,6.44c-1.22,2.28-2.2,4.71-2.71,7.26c-0.31,1.26-0.43,2.56-0.52,3.85
				l-0.01,0.98c-0.01,0.33-0.01,0.65,0.02,0.98l0.05,0.98c0.01,0.33,0.07,0.65,0.1,0.97c0.04,0.32,0.06,0.65,0.13,0.97l0.18,0.97
				c0.11,0.65,0.29,1.27,0.46,1.91c0.35,1.26,0.84,2.48,1.41,3.67c1.12,2.38,2.64,4.57,4.5,6.46
				C142.53,320.82,140.74,318.74,139.35,316.4z"/>
			<path d="M126.72,258.08c4.16,1.06,8.29,2.2,12.41,3.43c4.12,1.24,8.21,2.55,12.26,4.09c-4.27-0.58-8.48-1.39-12.68-2.27
				c-4.2-0.89-8.37-1.87-12.53-2.93c-4.16-1.06-8.3-2.2-12.41-3.43c-4.12-1.24-8.21-2.55-12.26-4.09c4.27,0.58,8.48,1.39,12.68,2.27
				C118.39,256.03,122.57,257.01,126.72,258.08z"/>
			<path d="M292.23,195c2.71,0,5.42,0.07,8.13,0.1l8.13,0.19l8.13,0.28c2.71,0.12,5.42,0.22,8.13,0.37
				c5.42,0.27,10.83,0.6,16.25,1.08c-5.43,0.17-10.85,0.19-16.28,0.15c-2.71,0-5.42-0.07-8.13-0.1l-8.13-0.19l-8.13-0.28
				c-2.71-0.12-5.42-0.21-8.13-0.37c-5.42-0.27-10.83-0.6-16.25-1.09C281.39,194.98,286.81,194.96,292.23,195z"/>
			<path d="M175.48,217.27c1.62-4.15,3.31-8.27,5.09-12.35c1.77-4.08,3.61-8.13,5.53-12.13c1.93-4,3.92-7.98,6.12-11.85
				c-1.34,4.28-2.89,8.47-4.49,12.63c-1.62,4.15-3.31,8.27-5.08,12.35c-1.77,4.08-3.61,8.13-5.53,12.13
				c-1.93,4-3.92,7.98-6.12,11.85C172.33,225.61,173.87,221.42,175.48,217.27z"/>
			<path d="M202.73,156.08c1.43-3.16,2.91-6.29,4.48-9.38c1.56-3.09,3.17-6.16,4.96-9.14c-1.08,3.33-2.32,6.58-3.63,9.8
				c-1.29,3.22-2.67,6.41-4.1,9.57c-1.43,3.16-2.91,6.29-4.48,9.38c-1.56,3.09-3.17,6.16-4.96,9.14c1.07-3.33,2.32-6.58,3.62-9.8
				C199.92,162.42,201.3,159.23,202.73,156.08z"/>
			<path d="M231.58,133.84l4.08,1.13l4.06,1.22c1.34,0.43,2.7,0.84,4.03,1.3c2.68,0.89,5.35,1.84,7.98,2.94
				c-2.79-0.47-5.55-1.08-8.29-1.75c-1.37-0.32-2.73-0.7-4.1-1.05l-4.08-1.13l-4.06-1.21c-1.34-0.43-2.7-0.84-4.03-1.3
				c-2.68-0.89-5.35-1.84-7.98-2.94c2.79,0.46,5.55,1.08,8.29,1.75C228.86,133.11,230.21,133.49,231.58,133.84z"/>
			<path d="M262.92,150.68l1.72,1.89c0.56,0.64,1.13,1.27,1.68,1.93c1.1,1.3,2.18,2.64,3.18,4.05c-1.33-1.07-2.58-2.22-3.81-3.41
				c-0.62-0.58-1.21-1.2-1.81-1.8l-1.77-1.84c-1.17-1.24-2.3-2.52-3.4-3.82c-1.1-1.3-2.18-2.64-3.17-4.06
				c1.33,1.07,2.59,2.22,3.81,3.4C260.57,148.22,261.76,149.43,262.92,150.68z"/>
			<path d="M191.68,327.47c2.16-0.72,4.31-1.48,6.45-2.26c2.15-0.78,4.29-1.61,6.5-2.37c-1.84,1.49-3.85,2.72-5.93,3.8
				c-2.08,1.08-4.24,1.98-6.45,2.72c-2.21,0.74-4.48,1.31-6.77,1.69c-2.29,0.38-4.61,0.59-6.94,0.49c2.22-0.72,4.43-1.35,6.61-2.01
				C187.36,328.87,189.52,328.18,191.68,327.47z"/>
			<path d="M156.31,295.83c1.45,0.96,2.87,1.97,4.24,3.05c1.37,1.09,2.72,2.22,3.96,3.53c-1.66-0.61-3.22-1.39-4.75-2.21
				c-1.53-0.83-3.01-1.73-4.46-2.69c-1.45-0.96-2.87-1.97-4.25-3.05c-1.37-1.09-2.72-2.22-3.96-3.53c1.66,0.61,3.22,1.38,4.75,2.21
				C153.37,293.97,154.86,294.87,156.31,295.83z"/>
			<path d="M159.27,294.36c-1.45-0.96-2.87-1.97-4.25-3.05c-1.37-1.09-2.72-2.22-3.96-3.53c1.66,0.61,3.22,1.38,4.75,2.21
				c1.53,0.83,3.01,1.73,4.46,2.69c1.45,0.96,2.87,1.97,4.24,3.05c1.37,1.09,2.72,2.22,3.96,3.53c-1.66-0.61-3.22-1.39-4.75-2.21
				C162.21,296.22,160.73,295.32,159.27,294.36z"/>
			<path d="M159.01,287.59c-1.37-1.09-2.72-2.22-3.96-3.53c1.66,0.61,3.22,1.38,4.75,2.21c1.53,0.83,3.01,1.73,4.46,2.69
				c1.45,0.96,2.87,1.97,4.24,3.05c1.37,1.09,2.72,2.22,3.96,3.53c-1.66-0.61-3.22-1.39-4.75-2.21c-1.53-0.83-3.01-1.73-4.46-2.69
				C161.8,289.69,160.38,288.67,159.01,287.59z"/>
			<path d="M167.7,286.26c1.45,0.96,2.87,1.97,4.24,3.05c1.37,1.09,2.72,2.22,3.96,3.53c-1.66-0.61-3.22-1.39-4.75-2.21
				c-1.53-0.83-3.01-1.73-4.46-2.69c-1.45-0.96-2.87-1.97-4.25-3.05c-1.37-1.09-2.72-2.22-3.96-3.53c1.66,0.61,3.22,1.38,4.75,2.21
				C164.77,284.4,166.25,285.3,167.7,286.26z"/>
			<path d="M154.66,301.53c1.66,1.15,3.28,2.37,4.86,3.64c1.58,1.28,3.12,2.61,4.56,4.11c-1.87-0.81-3.64-1.79-5.38-2.81
				c-1.73-1.03-3.43-2.13-5.09-3.28c-1.66-1.15-3.28-2.36-4.86-3.64c-1.58-1.28-3.12-2.61-4.56-4.11c1.88,0.81,3.65,1.79,5.38,2.81
				C151.31,299.28,153,300.38,154.66,301.53z"/>
			<path d="M154.15,309.94c-1.66-1.15-3.28-2.36-4.86-3.64c-1.58-1.28-3.12-2.61-4.56-4.11c1.88,0.81,3.65,1.79,5.38,2.81
				c1.73,1.03,3.43,2.13,5.08,3.29c1.66,1.16,3.28,2.37,4.86,3.64c1.58,1.28,3.12,2.61,4.56,4.11c-1.87-0.81-3.64-1.79-5.38-2.81
				C157.5,312.19,155.81,311.09,154.15,309.94z"/>
			<path d="M153.83,316.58c-1.66-1.15-3.28-2.36-4.86-3.64c-1.58-1.28-3.12-2.61-4.56-4.11c1.88,0.81,3.65,1.79,5.38,2.81
				c1.73,1.03,3.43,2.13,5.08,3.29c1.66,1.15,3.28,2.37,4.86,3.64c1.58,1.28,3.12,2.61,4.56,4.11c-1.87-0.81-3.64-1.79-5.38-2.81
				C157.18,318.84,155.48,317.74,153.83,316.58z"/>
			<path d="M336.56,175.78c-0.82,0-1.63-0.04-2.45-0.13c-0.82-0.09-1.63-0.22-2.45-0.47c0.82-0.25,1.63-0.37,2.45-0.47
				c0.82-0.09,1.63-0.13,2.45-0.13c0.82,0,1.63,0.04,2.45,0.13c0.82,0.1,1.63,0.22,2.45,0.47c-0.82,0.25-1.63,0.37-2.45,0.47
				C338.19,175.74,337.38,175.78,336.56,175.78z"/>
			<path d="M336.56,178.59c-0.82,0-1.63-0.04-2.45-0.13c-0.82-0.09-1.63-0.22-2.45-0.47c0.82-0.25,1.63-0.37,2.45-0.47
				c0.82-0.09,1.63-0.13,2.45-0.13c0.82,0,1.63,0.04,2.45,0.13c0.82,0.1,1.63,0.22,2.45,0.47c-0.82,0.25-1.63,0.37-2.45,0.47
				C338.19,178.55,337.38,178.59,336.56,178.59z"/>
			<path d="M336.56,181.52c-0.82,0-1.63-0.04-2.45-0.13c-0.82-0.09-1.63-0.22-2.45-0.47c0.82-0.25,1.63-0.37,2.45-0.47
				c0.82-0.09,1.63-0.13,2.45-0.13c0.82,0,1.63,0.04,2.45,0.13c0.82,0.1,1.63,0.22,2.45,0.47c-0.82,0.25-1.63,0.37-2.45,0.47
				C338.19,181.48,337.38,181.52,336.56,181.52z"/>
			<path d="M283.29,219.86c0.7,0,1.41,0.04,2.11,0.13c0.7,0.09,1.41,0.22,2.11,0.47c-0.7,0.25-1.41,0.37-2.11,0.47
				c-0.7,0.09-1.41,0.13-2.11,0.13c-0.7,0-1.41-0.04-2.11-0.13c-0.7-0.09-1.41-0.22-2.11-0.47c0.7-0.25,1.41-0.38,2.11-0.47
				C281.89,219.9,282.59,219.86,283.29,219.86z"/>
			<path d="M283.74,222.75c0.7,0,1.41,0.04,2.11,0.13c0.7,0.09,1.41,0.22,2.11,0.47c-0.7,0.25-1.41,0.37-2.11,0.47
				c-0.7,0.09-1.41,0.13-2.11,0.13c-0.7,0-1.41-0.04-2.11-0.13c-0.7-0.09-1.41-0.22-2.11-0.47c0.7-0.25,1.41-0.38,2.11-0.47
				C282.33,222.79,283.03,222.75,283.74,222.75z"/>
			<path d="M284.38,225.15c0.7,0,1.41,0.04,2.11,0.13c0.7,0.09,1.41,0.22,2.11,0.47c-0.7,0.25-1.41,0.37-2.11,0.47
				c-0.7,0.09-1.41,0.13-2.11,0.13c-0.7,0-1.41-0.04-2.11-0.13c-0.7-0.09-1.41-0.22-2.11-0.47c0.7-0.25,1.41-0.38,2.11-0.47
				C282.97,225.19,283.68,225.15,284.38,225.15z"/>
			<path d="M285.74,227.55c0.7,0,1.41,0.04,2.11,0.13c0.7,0.09,1.41,0.22,2.11,0.47c-0.7,0.25-1.41,0.37-2.11,0.47
				c-0.7,0.09-1.41,0.13-2.11,0.13c-0.7,0-1.41-0.04-2.11-0.13c-0.7-0.09-1.41-0.22-2.11-0.47c0.7-0.25,1.41-0.38,2.11-0.47
				C284.34,227.59,285.04,227.55,285.74,227.55z"/>
			<path d="M289.36,229.47c0.7,0,1.41,0.04,2.11,0.13c0.7,0.09,1.41,0.22,2.11,0.47c-0.7,0.25-1.41,0.37-2.11,0.47
				c-0.7,0.09-1.41,0.13-2.11,0.13c-0.7,0-1.41-0.04-2.11-0.13c-0.7-0.09-1.41-0.22-2.11-0.47c0.7-0.25,1.41-0.38,2.11-0.47
				C287.96,229.51,288.66,229.47,289.36,229.47z"/>
			<path d="M283.29,217.01c0.7,0,1.41,0.04,2.11,0.13c0.7,0.09,1.41,0.22,2.11,0.47c-0.7,0.25-1.41,0.37-2.11,0.47
				c-0.7,0.09-1.41,0.13-2.11,0.13c-0.7,0-1.41-0.04-2.11-0.13c-0.7-0.09-1.41-0.22-2.11-0.47c0.7-0.25,1.41-0.38,2.11-0.47
				C281.89,217.05,282.59,217.01,283.29,217.01z"/>
			<path d="M284.94,214.15c0.7,0,1.41,0.04,2.11,0.13c0.7,0.09,1.41,0.22,2.11,0.47c-0.7,0.25-1.41,0.37-2.11,0.47
				c-0.7,0.09-1.41,0.13-2.11,0.13c-0.7,0-1.41-0.04-2.11-0.13c-0.7-0.09-1.41-0.22-2.11-0.47c0.7-0.25,1.41-0.38,2.11-0.47
				C283.53,214.19,284.24,214.15,284.94,214.15z"/>
			<path d="M291.75,212.12c-0.7,0.25-1.41,0.37-2.11,0.47c-0.7,0.09-1.41,0.13-2.11,0.13c-0.7,0-1.41-0.04-2.11-0.13
				c-0.7-0.09-1.41-0.22-2.11-0.47c0.7-0.25,1.41-0.38,2.11-0.47c0.7-0.09,1.41-0.13,2.11-0.13c0.7,0,1.41,0.04,2.11,0.13
				C290.34,211.75,291.04,211.88,291.75,212.12z"/>
			<path d="M292.19,210.09c-0.7,0-1.41-0.04-2.11-0.13c-0.7-0.09-1.41-0.22-2.11-0.47c0.7-0.25,1.41-0.38,2.11-0.47
				c0.7-0.09,1.41-0.13,2.11-0.13c0.7,0,1.41,0.04,2.11,0.13c0.7,0.09,1.41,0.22,2.11,0.47c-0.7,0.25-1.41,0.37-2.11,0.47
				C293.6,210.05,292.9,210.09,292.19,210.09z"/>
			<path d="M336.56,183.88c-0.82,0-1.63-0.04-2.45-0.13c-0.82-0.09-1.63-0.22-2.45-0.47c0.82-0.25,1.63-0.37,2.45-0.47
				c0.82-0.09,1.63-0.13,2.45-0.13c0.82,0,1.63,0.04,2.45,0.13c0.82,0.1,1.63,0.22,2.45,0.47c-0.82,0.25-1.63,0.37-2.45,0.47
				C338.19,183.84,337.38,183.88,336.56,183.88z"/>
			<path d="M336.56,186.92c-0.82,0-1.63-0.04-2.45-0.13c-0.82-0.09-1.63-0.22-2.45-0.47c0.82-0.25,1.63-0.37,2.45-0.47
				c0.82-0.09,1.63-0.13,2.45-0.13c0.82,0,1.63,0.04,2.45,0.13c0.82,0.1,1.63,0.22,2.45,0.47c-0.82,0.25-1.63,0.37-2.45,0.47
				C338.19,186.88,337.38,186.92,336.56,186.92z"/>
			<path d="M336.57,188.43c0.82,0.01,1.63,0.06,2.44,0.16c0.81,0.1,1.63,0.24,2.44,0.49c-0.82,0.24-1.63,0.35-2.45,0.44
				c-0.82,0.08-1.63,0.11-2.45,0.1c-0.82-0.01-1.63-0.06-2.44-0.15c-0.81-0.1-1.63-0.24-2.44-0.5c0.82-0.24,1.63-0.36,2.45-0.44
				C334.94,188.46,335.75,188.42,336.57,188.43z"/>
			<path d="M336.56,192.22c-0.82-0.01-1.63-0.06-2.44-0.15c-0.81-0.1-1.63-0.24-2.44-0.5c0.82-0.24,1.63-0.36,2.45-0.44
				c0.82-0.08,1.63-0.11,2.45-0.1c0.82,0.01,1.63,0.06,2.44,0.16c0.81,0.1,1.63,0.24,2.44,0.49c-0.82,0.24-1.63,0.35-2.45,0.44
				C338.19,192.19,337.37,192.22,336.56,192.22z"/>
			<path d="M319.25,174.59v-8.95c0-1.24-0.96-2.25-2.15-2.25h-12.26c-1.18,0-2.15,1.01-2.15,2.25v8.95c0,1.24,0.96,2.25,2.15,2.25
				h12.26C318.28,176.84,319.25,175.83,319.25,174.59z M318.11,174.59c0,0.58-0.45,1.06-1.01,1.06h-12.26
				c-0.56,0-1.01-0.47-1.01-1.06v-8.95c0-0.58,0.45-1.06,1.01-1.06h12.26c0.56,0,1.01,0.47,1.01,1.06V174.59z"/>
			<path d="M299.51,182.62v-16.45c0-1.57-1.22-2.85-2.72-2.85h-10.05c-1.5,0-2.72,1.28-2.72,2.85v16.45c0,1.57,1.22,2.85,2.72,2.85
				h10.05C298.29,185.47,299.51,184.19,299.51,182.62z M298.37,182.62c0,0.91-0.71,1.66-1.58,1.66h-10.05
				c-0.87,0-1.58-0.74-1.58-1.66v-16.45c0-0.91,0.71-1.66,1.58-1.66h10.05c0.87,0,1.58,0.74,1.58,1.66V182.62z"/>
			<path d="M302.49,180.55v10.3c0,0.9,0.7,1.64,1.57,1.64h6.32c0.52,0,1-0.27,1.29-0.72l6-9.24c0.46-0.71,0.51-1.63,0.13-2.39
				c-0.39-0.76-1.14-1.23-1.96-1.23h-11.78C303.19,178.91,302.49,179.64,302.49,180.55z M303.63,180.55c0-0.25,0.19-0.45,0.43-0.45
				h11.78c0.41,0,0.76,0.22,0.95,0.6c0.19,0.38,0.17,0.81-0.06,1.16l-6,9.24c-0.08,0.12-0.21,0.2-0.35,0.2h-6.32
				c-0.24,0-0.43-0.2-0.43-0.45V180.55z"/>
			<path d="M294.37,224.4c4.95,0.7,9.9,1.22,14.86,1.47c2.48,0.11,4.96,0.19,7.44,0.16l1.86-0.02l1.86-0.04
				c1.23-0.04,2.47-0.12,3.7-0.22c2.47-0.18,4.94-0.45,7.41-0.74c2.47-0.28,4.94-0.63,7.4-0.96c1.23-0.17,2.46-0.37,3.69-0.56
				c0.61-0.1,1.23-0.2,1.83-0.32c0.29-0.06,0.63-0.13,0.84-0.19c0.28-0.12,0.56-0.23,0.84-0.37c1.11-0.52,2.17-1.19,3.19-1.93
				c0.51-0.37,1.01-0.76,1.48-1.17c0.48-0.41,0.95-0.84,1.34-1.35c-0.68,1.11-1.62,2.01-2.57,2.87c-0.48,0.43-0.98,0.83-1.5,1.21
				c-0.52,0.38-1.05,0.74-1.61,1.06c-0.28,0.17-0.57,0.31-0.86,0.45c-0.19,0.08-0.34,0.12-0.5,0.17l-0.46,0.13
				c-0.61,0.16-1.23,0.31-1.84,0.45c-1.22,0.28-2.46,0.52-3.69,0.76c-4.92,0.94-9.88,1.65-14.89,2.07
				c-5.03,0.37-10.05,0.25-15.05-0.23C304.16,226.61,299.2,225.74,294.37,224.4z"/>
			<path d="M289.62,224.92c-0.67-0.8-1.13-1.82-1.29-2.87c-0.09-0.53-0.1-1.06-0.11-1.53c-0.01-0.5,0.01-1.01,0.07-1.53
				c0.13-1.02,0.43-2.08,1.01-2.98c0.56-0.91,1.34-1.63,2.17-2.19c0.83-0.57,1.72-0.97,2.61-1.31c0.9-0.34,1.8-0.6,2.71-0.83
				c1.82-0.44,3.66-0.73,5.49-0.95c7.32-0.66,14.59-1.14,21.9-1.61c7.3-0.46,14.6-0.87,21.91-1.12c-7.26,0.91-14.54,1.66-21.82,2.36
				c-3.64,0.36-7.28,0.67-10.92,1l-5.46,0.46l-2.73,0.23l-1.37,0.11l-1.34,0.15c-1.8,0.21-3.59,0.48-5.33,0.89
				c-1.73,0.42-3.45,0.97-4.89,1.89c-0.72,0.46-1.34,1.03-1.79,1.72c-0.46,0.68-0.72,1.5-0.84,2.37c-0.06,0.44-0.08,0.88-0.09,1.34
				c0.01,0.48,0,0.91,0.06,1.33c0.11,0.84,0.43,1.63,0.95,2.29c0.51,0.66,1.2,1.19,1.97,1.62c0.76,0.42,1.59,0.74,2.45,1
				c1.71,0.52,3.51,0.79,5.31,0.97c3.61,0.38,7.28,0.34,10.93,0.56c-3.65,0.13-7.31,0.38-10.99,0.21c-1.84-0.09-3.69-0.29-5.51-0.74
				c-0.91-0.23-1.82-0.54-2.69-0.98C291.13,226.32,290.29,225.73,289.62,224.92z"/>
			<path d="M244.65,215.7c0.7-0.09,1.41-0.13,2.11-0.13c0.7,0,1.41,0.04,2.11,0.13c0.7,0.09,1.41,0.22,2.11,0.47
				c-0.7,0.25-1.41,0.37-2.11,0.47c-0.7,0.09-1.41,0.13-2.11,0.13c-0.7,0-1.41-0.04-2.11-0.13c-0.7-0.09-1.41-0.22-2.11-0.47
				C243.24,215.92,243.95,215.8,244.65,215.7z"/>
			<path d="M245.1,218.6c0.7-0.09,1.41-0.13,2.11-0.13c0.7,0,1.41,0.04,2.11,0.13c0.7,0.09,1.41,0.22,2.11,0.47
				c-0.7,0.25-1.41,0.37-2.11,0.47c-0.7,0.09-1.41,0.13-2.11,0.13c-0.7,0-1.41-0.04-2.11-0.13c-0.7-0.09-1.41-0.22-2.11-0.47
				C243.69,218.82,244.39,218.69,245.1,218.6z"/>
			<path d="M244.26,222.06c0.7-0.25,1.41-0.38,2.11-0.47c0.7-0.09,1.41-0.13,2.11-0.13c0.7,0,1.41,0.04,2.11,0.13
				c0.7,0.09,1.41,0.22,2.11,0.47c-0.7,0.25-1.41,0.37-2.11,0.47c-0.7,0.09-1.41,0.13-2.11,0.13c-0.7,0-1.41-0.04-2.11-0.13
				C245.67,222.44,244.96,222.31,244.26,222.06z"/>
			<path d="M251.44,223.86c0.7,0,1.41,0.04,2.11,0.13c0.7,0.09,1.41,0.22,2.11,0.47c-0.7,0.25-1.41,0.37-2.11,0.47
				c-0.7,0.09-1.41,0.13-2.11,0.13c-0.7,0-1.41-0.04-2.11-0.13c-0.7-0.09-1.41-0.22-2.11-0.47c0.7-0.25,1.41-0.38,2.11-0.47
				C250.03,223.9,250.73,223.86,251.44,223.86z"/>
			<path d="M244.65,212.85c0.7-0.09,1.41-0.13,2.11-0.13c0.7,0,1.41,0.04,2.11,0.13c0.7,0.09,1.41,0.22,2.11,0.47
				c-0.7,0.25-1.41,0.37-2.11,0.47c-0.7,0.09-1.41,0.13-2.11,0.13c-0.7,0-1.41-0.04-2.11-0.13c-0.7-0.09-1.41-0.22-2.11-0.47
				C243.24,213.07,243.95,212.94,244.65,212.85z"/>
			<path d="M248.41,209.87c0.7,0,1.41,0.04,2.11,0.13c0.7,0.09,1.41,0.22,2.11,0.47c-0.7,0.25-1.41,0.37-2.11,0.47
				c-0.7,0.09-1.41,0.13-2.11,0.13c-0.7,0-1.41-0.04-2.11-0.13c-0.7-0.09-1.41-0.22-2.11-0.47c0.7-0.25,1.41-0.38,2.11-0.47
				C247.01,209.91,247.71,209.87,248.41,209.87z"/>
			<path d="M250.99,207.25c0.7,0,1.41,0.04,2.11,0.13c0.7,0.09,1.41,0.22,2.11,0.47c-0.7,0.25-1.41,0.37-2.11,0.47
				c-0.7,0.09-1.41,0.13-2.11,0.13c-0.7,0-1.41-0.04-2.11-0.13c-0.7-0.09-1.41-0.22-2.11-0.47c0.7-0.25,1.41-0.38,2.11-0.47
				C249.58,207.28,250.29,207.24,250.99,207.25z"/>
			<path d="M255.66,204.62c0.7,0,1.41,0.04,2.11,0.13c0.7,0.09,1.41,0.22,2.11,0.47c-0.7,0.25-1.41,0.37-2.11,0.47
				c-0.7,0.09-1.41,0.13-2.11,0.13c-0.7,0-1.41-0.04-2.11-0.13c-0.7-0.09-1.41-0.22-2.11-0.47c0.7-0.25,1.41-0.38,2.11-0.47
				C254.25,204.66,254.96,204.62,255.66,204.62z"/>
			<path d="M267.83,204.25c0.46-0.07,0.92-0.13,1.39-0.17c0.23-0.02,0.47-0.06,0.7-0.07l0.68-0.03l5.47-0.25
				c3.65-0.16,7.3-0.29,10.94-0.42c7.3-0.24,14.6-0.42,21.9-0.41c-7.27,0.71-14.55,1.24-21.83,1.71c-3.64,0.23-7.28,0.45-10.92,0.65
				l-5.46,0.29c-0.46,0.02-0.91,0.04-1.35,0.11c-0.44,0.05-0.88,0.11-1.33,0.17c-0.89,0.12-1.77,0.27-2.65,0.46
				c-1.75,0.37-3.47,0.87-5.11,1.57c-1.63,0.7-3.18,1.6-4.48,2.78c-0.64,0.59-1.22,1.26-1.68,1.99c-0.45,0.74-0.8,1.54-0.98,2.39
				c-0.1,0.42-0.14,0.85-0.15,1.29c-0.01,0.45,0,0.89,0.06,1.31c0.12,0.84,0.44,1.62,0.97,2.28c0.52,0.66,1.21,1.18,1.97,1.6
				c0.76,0.42,1.59,0.74,2.45,0.99c1.71,0.51,3.5,0.78,5.3,0.97c3.61,0.38,7.27,0.34,10.91,0.56c-3.65,0.13-7.29,0.38-10.97,0.21
				c-1.83-0.09-3.68-0.28-5.5-0.74c-0.91-0.23-1.82-0.53-2.68-0.97c-0.86-0.44-1.7-1.02-2.37-1.82c-0.68-0.79-1.14-1.81-1.32-2.85
				c-0.05-0.26-0.07-0.53-0.09-0.79c-0.01-0.25-0.02-0.51-0.02-0.76c0.01-0.51,0.05-1.04,0.15-1.55c0.19-1.03,0.6-2,1.12-2.87
				c0.53-0.87,1.18-1.65,1.89-2.32c1.44-1.36,3.12-2.35,4.86-3.09c1.74-0.76,3.55-1.29,5.37-1.69
				C266,204.54,266.91,204.38,267.83,204.25z"/>
			<path d="M349.61,215.6c0-2.71-2.1-4.91-4.69-4.91c-2.59,0-4.69,2.2-4.69,4.91c0,2.71,2.1,4.91,4.69,4.91
				C347.5,220.51,349.61,218.31,349.61,215.6z M348.47,215.6c0,2.05-1.59,3.72-3.55,3.72s-3.55-1.67-3.55-3.72
				c0-2.05,1.59-3.72,3.55-3.72S348.47,213.54,348.47,215.6z"/>
			<path d="M76.46,299.03c0.34,1.26,0.73,2.5,1.19,3.74c0.22,0.62,0.5,1.25,0.78,1.82l0.84,1.76c1.2,2.3,2.57,4.51,4.08,6.6
				c3.06,4.15,6.72,7.79,10.73,10.89c4,3.13,8.34,5.72,12.82,7.95c4.49,2.2,9.14,4.01,13.86,5.56c2.36,0.77,4.73,1.47,7.11,2.13
				c1.19,0.33,2.38,0.64,3.57,0.95c1.19,0.31,2.41,0.57,3.62,0.85l1.81,0.41c0.61,0.13,1.21,0.29,1.82,0.37l3.67,0.61
				c0.61,0.09,1.22,0.22,1.84,0.29l1.85,0.21c1.23,0.13,2.46,0.28,3.69,0.4l3.71,0.22c0.62,0.03,1.23,0.09,1.85,0.09l1.86,0.02
				l1.86,0.02c0.62,0.01,1.24,0.02,1.86-0.02l3.71-0.14c4.94-0.31,9.86-0.94,14.71-1.92c1.21-0.25,2.43-0.49,3.63-0.8l1.81-0.44
				c0.6-0.15,1.2-0.33,1.8-0.49c2.39-0.65,4.76-1.41,7.1-2.29c4.65-1.79,9.17-3.9,13.53-6.34c8.7-4.91,16.33-11,23.31-18.26
				l2.38-2.66l-1.15-0.19l-13.24-2.14l-0.14-0.02l-0.11,0.07l-6.79,4.64l-6.24,4.3c-1.06-0.39-2.11-0.84-3.11-1.37
				c-0.27-0.14-0.52-0.29-0.78-0.44l11.55-8.57l-12.33-3.08l-6.55,4.73c-0.83-1.25-1.58-2.56-2.25-3.91
				c-1.53-3.19-2.75-6.56-3.69-10.03l-0.67-2.61c-0.2-0.88-0.37-1.76-0.57-2.63l-0.14-0.66l-0.12-0.66l-0.23-1.33
				c-0.07-0.44-0.17-0.88-0.22-1.33l-0.18-1.34l-0.18-1.34c-0.05-0.45-0.09-0.9-0.13-1.34c-0.08-0.9-0.18-1.79-0.22-2.69
				c-0.13-1.8-0.18-3.6-0.19-5.41c-0.01-7.23,0.92-14.45,2.44-21.55l0.01-0.03c0.04-0.2-0.07-0.39-0.25-0.45
				c-1.44-0.44-2.88-0.88-4.33-1.3c-1.42-0.43-2.85-0.83-4.27-1.24l0.31-0.94l-1.21-0.28l12.87-6.76c3.25-1.71,4.56-5.87,2.94-9.27
				l-1.28-2.67c-1.63-3.4-5.6-4.78-8.85-3.08l-5.41,2.84l39.97-91.66l32.16,8.66l16.52,17.31v37.26l-13.31,0.37
				c-8.51,0.42-15.16,7.47-15.16,16.04c0,6.82,5.49,12.36,12.24,12.36c0.43,0,0.89-0.03,1.37-0.08l23.77-2.65
				c0.67,2.07,1.84,3.95,3.42,5.44c2.26,2.12,5.18,3.27,8.18,3.27c0.45,0,0.9-0.03,1.35-0.08l56.81-6.59
				c6.22-0.72,10.91-6.21,10.91-12.76c0-2.71-1.08-5.21-3.11-7.24c-2.89-2.88-7.41-4.52-11.79-4.3l-51.27,1.47
				c-8.51,0.44-15.16,7.76-15.16,16.66c0,0.76,0.08,1.51,0.21,2.25l-23.52,2.63c-0.41,0.04-0.8,0.07-1.16,0.07
				c-5.7,0-10.34-4.69-10.34-10.45c0-7.55,5.86-13.76,13.34-14.13l13.66-0.38h79.74v-32.46h-15.18l-11.57-12.12h-38.38l-23.25-24.35
				l-48.4-12.59l-50.42,101.97l-29.61,13.8l-21.07-4.96l-7.71,15.31l71.75,19.27l5.68-17.18c1.38,0.55,2.76,1.11,4.14,1.65
				c1.29,0.51,2.59,1.01,3.88,1.5c-1.94,6.92-3.16,14.12-3.3,21.39c-0.03,1.85-0.02,3.7,0.07,5.54c0.02,0.92,0.12,1.84,0.2,2.77
				c0.04,0.46,0.07,0.92,0.12,1.38l0.17,1.38c0.46,3.67,1.16,7.31,2.19,10.85c0.24,0.89,0.53,1.77,0.8,2.65
				c0.3,0.87,0.59,1.75,0.92,2.61c0.65,1.73,1.41,3.41,2.25,5.06c0.86,1.63,1.81,3.22,2.92,4.71c1.11,1.48,2.38,2.85,3.83,4
				c2.89,2.26,6.24,3.75,9.7,4.53c3.46,0.78,7.03,0.85,10.49,0.33c-3.49,0.14-6.98-0.21-10.28-1.19c-0.55-0.17-1.09-0.35-1.63-0.55
				l6.41-3.96l6.84-4.27l11.84,2.36c-3.31,3.15-6.79,6.1-10.44,8.79c-1.99,1.45-4.01,2.86-6.1,4.16c-1.03,0.67-2.09,1.29-3.14,1.92
				c-1.05,0.63-2.13,1.21-3.2,1.8c-4.31,2.31-8.79,4.29-13.35,5.95c-4.57,1.62-9.28,2.83-14.04,3.74c-4.76,0.9-9.58,1.44-14.41,1.72
				l-3.63,0.12c-0.6,0.03-1.21,0.02-1.81,0.01l-1.81-0.02l-1.81-0.02c-0.6,0-1.21-0.07-1.81-0.1l-3.62-0.23
				c-1.2-0.12-2.4-0.27-3.6-0.4l-1.8-0.21c-0.6-0.07-1.19-0.19-1.79-0.29l-3.58-0.61c-0.6-0.09-1.19-0.24-1.78-0.37l-1.77-0.41
				c-1.18-0.27-2.36-0.51-3.55-0.82l-3.54-0.93c-2.35-0.64-4.69-1.32-7.01-2.06c-4.63-1.49-9.18-3.25-13.55-5.37
				c-4.37-2.12-8.6-4.58-12.48-7.54c-3.9-2.93-7.42-6.39-10.41-10.3c-1.48-1.97-2.82-4.04-4-6.22L81.42,302
				c-0.29-0.56-0.53-1.09-0.75-1.67c-0.45-1.14-0.85-2.32-1.19-3.53c-0.7-2.4-1.22-4.87-1.59-7.35c-0.37-2.48-0.55-5-0.5-7.5
				c0.02-0.63,0.06-1.25,0.09-1.87c0.05-0.62,0.13-1.24,0.19-1.86c0.21-1.23,0.38-2.48,0.71-3.69c0.26-1.23,0.68-2.41,1.05-3.6
				l0.68-1.74l0.17-0.44l0.2-0.42l0.4-0.84c1.08-2.24,2.38-4.39,3.94-6.32c1.54-1.94,3.25-3.76,5.16-5.32l0.7-0.6
				c0.24-0.19,0.49-0.37,0.74-0.56c0.5-0.37,0.99-0.74,1.49-1.1c1.04-0.66,2.05-1.38,3.14-1.95c2.12-1.27,4.39-2.23,6.67-3.16
				c-2.32,0.81-4.64,1.66-6.83,2.83c-1.13,0.52-2.17,1.21-3.25,1.83c-0.52,0.34-1.03,0.7-1.55,1.05c-0.26,0.18-0.52,0.35-0.77,0.53
				l-0.74,0.58c-2,1.51-3.82,3.29-5.47,5.23c-0.44,0.51-0.86,1.04-1.27,1.58c-0.09,0.1-0.17,0.22-0.26,0.35
				c-1.01,1.14-3.65,5.31-4.58,7.4l-0.19,0.45l-0.76,1.79c-0.43,1.23-0.89,2.45-1.19,3.72c-0.37,1.25-0.58,2.54-0.83,3.82
				c-0.08,0.65-0.18,1.3-0.25,1.95c-0.05,0.65-0.11,1.31-0.14,1.96C74.4,288.78,75.11,294.01,76.46,299.03z M276.9,221.93
				c0-7.84,5.86-14.29,13.33-14.67l51.27-1.47c0.23-0.01,0.46-0.02,0.7-0.02c3.64,0,7.38,1.44,9.71,3.77
				c1.65,1.65,2.52,3.65,2.52,5.8c0,5.54-3.97,10.18-9.22,10.79l-56.81,6.59c-2.93,0.34-5.86-0.65-8.05-2.7
				C278.16,227.97,276.9,225.02,276.9,221.93z M176.57,249.12l-4.73,14.29l-67.73-18.19l5.91-11.74L176.57,249.12z M158.31,225.19
				l-7.8,15.77l-17.31-4.07L158.31,225.19z M175.4,229.88l-20.36,10.69c-0.55,0.29-1.06,0.66-1.52,1.1l-1.1-0.26l58.7-118.71
				l46.44,12.07L281,159.32h38.38l11.57,12.12h14.06v28.49h-76.36v-38l-17.45-18.27l-34.2-9.21l-0.33,0.76L175.4,229.88z
				 M174.92,246.7l-18.87-4.44l20.76-10.91l0.02,0.01l0.01-0.03l7.52-3.95c2.31-1.21,5.14-0.23,6.3,2.19l1.28,2.67
				c1.16,2.42,0.22,5.39-2.09,6.6L174.92,246.7z M200.91,315.18c-1.09-0.66-2.13-1.43-3.12-2.23c-1.29-1.11-2.43-2.43-3.42-3.86
				c-0.07-0.1-0.13-0.2-0.2-0.3l6.41-4.62l11.35,2.84L200.91,315.18z"/>
			<path d="M159.97,333.67c-4.94-0.35-9.9-1.36-14.56-3.39c-4.65-1.98-9-5.11-12.18-9.38c-1.59-2.13-2.83-4.54-3.71-7.08
				c-0.88-2.55-1.38-5.2-1.56-7.88c-0.34-5.37,0.81-10.84,3.18-15.57c2.37-4.74,5.74-8.82,9.61-12.13c3.86-3.35,8.21-6,12.77-8.02
				c4.58-1.99,9.4-3.37,14.29-3.83c-4.8,1.07-9.42,2.78-13.75,5.07c-2.17,1.13-4.27,2.4-6.27,3.81c-2,1.41-3.92,2.93-5.7,4.61
				c-3.54,3.36-6.65,7.25-8.72,11.68c-1.03,2.21-1.84,4.53-2.31,6.92c-0.47,2.39-0.63,4.84-0.46,7.28c0.15,2.44,0.58,4.87,1.35,7.16
				c0.76,2.3,1.88,4.45,3.26,6.4c1.38,1.95,3.06,3.69,4.93,5.18c1.87,1.49,3.93,2.75,6.08,3.8c2.16,1.06,4.43,1.87,6.75,2.54
				c2.32,0.67,4.7,1.15,7.1,1.47c4.8,0.67,9.71,0.71,14.59,0.21C169.89,333.63,164.92,333.97,159.97,333.67z"/>
		</g>
	</g>
	<g>
		<g>
			<text transform="matrix(1 0 0 1 213.2473 285.7401)" class="st5 st6">Название компании </text>
		</g>
	</g>
</g>
</svg>
