<?xml version="1.0" encoding="utf-8"?>
<!-- Generator: Adobe Illustrator 23.1.0, SVG Export Plug-In . SVG Version: 6.00 Build 0)  -->
<svg version="1.1" id="Слой_1" xmlns="http://www.w3.org/2000/svg" xmlns:xlink="http://www.w3.org/1999/xlink" x="0px" y="0px"
	 viewBox="0 0 640 480" style="enable-background:new 0 0 640 480;" xml:space="preserve">
<style type="text/css">
	.st0{fill:#FFFFFF;}
	.st1{fill:#FFE05F;}
	.st2{fill:none;}
	.st3{font-family:'Matiz';}
	.st4{font-size:46.0091px;}
</style>
<circle class="st0" cx="312.33" cy="244.53" r="221.33"/>
<g>
	<path class="st1" d="M44.06,293.83c0.05-0.91,0.14-1.82,0.2-2.73c0.1-0.91,0.23-1.82,0.35-2.72c0.35-1.79,0.64-3.59,1.16-5.33
		c0.42-1.77,1.06-3.47,1.66-5.18l1.06-2.49l0.27-0.62l0.31-0.6l0.62-1.2c1.67-3.19,3.63-6.21,5.96-8.9c2.29-2.71,4.83-5.19,7.62-7.3
		l1.03-0.81c0.35-0.26,0.72-0.5,1.08-0.74c0.72-0.49,1.43-0.99,2.16-1.47c1.51-0.86,2.96-1.83,4.53-2.55
		c3.06-1.63,6.3-2.82,9.53-3.95c0,0,0,0,0,0l0,0l0,0c0.02-0.03,0.04-0.06,0.06-0.09c-0.02-0.7,0.18-1.4,0.61-1.93l-2.62-0.7
		l10.76-21.36l29.39,6.91l41.29-19.24l70.33-142.21l67.51,17.55l32.43,33.97h53.53l16.14,16.91h21.16v45.27h-0.08
		c0.43,1.13,0.17,2.57-0.8,3.32c3.72,0.94,7.15,2.78,9.68,5.3c2.84,2.83,4.34,6.32,4.34,10.1c0,9.14-6.54,16.8-15.22,17.8
		l-79.24,9.19c-0.63,0.07-1.25,0.11-1.88,0.11c-4.19,0-8.26-1.61-11.41-4.57c-2.21-2.07-3.84-4.7-4.77-7.59l-33.15,3.7
		c-0.67,0.07-1.31,0.11-1.91,0.11c-9.41,0-17.07-7.74-17.07-17.24c0-11.95,9.27-21.78,21.14-22.37l18.56-0.51v-51.97l-23.05-24.14
		l-44.86-12.08L186.75,219.3l7.55-3.97c4.53-2.38,10.07-0.45,12.34,4.29l1.79,3.73c2.27,4.74,0.43,10.54-4.1,12.93l-17.95,9.42
		l1.69,0.4l-0.43,1.29c0.11,0.03,0.23,0.06,0.33,0.11c1.88,0.54,3.75,1.07,5.62,1.63c2.02,0.59,4.03,1.2,6.04,1.81
		c0.25,0.08,0.41,0.35,0.35,0.63l-0.01,0.04c-2.13,9.9-3.42,19.98-3.41,30.06c0.01,2.52,0.08,5.03,0.27,7.54
		c0.06,1.26,0.19,2.51,0.31,3.76c0.06,0.63,0.11,1.25,0.18,1.88l0.25,1.87l0.25,1.87c0.08,0.62,0.21,1.24,0.31,1.86l0.33,1.85
		l0.16,0.93l0.2,0.92c0.28,1.22,0.51,2.45,0.8,3.67l0.94,3.64c1.31,4.83,3.02,9.53,5.15,13.99c0.94,1.89,1.98,3.72,3.14,5.46
		l9.13-6.59l17.2,4.3l-16.11,11.95c0.36,0.21,0.72,0.42,1.09,0.61c1.4,0.74,2.85,1.36,4.34,1.91l8.7-5.99l9.47-6.46l0.15-0.1
		l0.2,0.03l18.46,2.98l1.61,0.26l-1.18,1.22c-9.75,10.12-20.9,18.81-33.02,25.65c-6.08,3.41-12.38,6.35-18.87,8.84
		c-3.26,1.22-6.56,2.28-9.9,3.19c-0.83,0.23-1.67,0.47-2.5,0.68l-2.52,0.61c-1.68,0.43-3.37,0.76-5.06,1.11
		c-6.77,1.36-13.63,2.24-20.52,2.67l-5.17,0.2c-0.86,0.05-1.72,0.04-2.59,0.03l-2.59-0.02l-2.59-0.02c-0.86,0-1.72-0.09-2.59-0.13
		l-5.17-0.3c-1.72-0.16-3.43-0.37-5.15-0.56l-2.57-0.29c-0.86-0.09-1.71-0.27-2.56-0.4l-5.11-0.85c-0.86-0.12-1.7-0.33-2.54-0.52
		l-2.53-0.57c-1.68-0.4-3.39-0.75-5.04-1.19c-1.66-0.43-3.32-0.87-4.98-1.33c-3.32-0.91-6.63-1.89-9.92-2.96
		c-6.57-2.15-13.06-4.68-19.33-7.75c-6.25-3.11-12.3-6.72-17.88-11.08c-5.59-4.32-10.7-9.4-14.97-15.19
		c-2.11-2.92-4.02-5.99-5.69-9.2l-1.17-2.45c-0.39-0.8-0.78-1.68-1.09-2.54c-0.64-1.73-1.19-3.46-1.66-5.22
		C44.73,308.42,43.74,301.14,44.06,293.83z"/>
	<g>
		<path class="st2" d="M405.91,140.83H388.8c-0.78,0-1.41-0.66-1.41-1.47v-12.48c0-0.81,0.63-1.47,1.41-1.47h17.11
			c0.78,0,1.41,0.66,1.41,1.47v12.48C407.32,140.17,406.68,140.83,405.91,140.83z"/>
		<path class="st2" d="M377.58,152.87h-14.02c-1.22,0-2.2-1.04-2.2-2.31v-22.94c0-1.27,0.99-2.31,2.2-2.31h14.02
			c1.22,0,2.21,1.04,2.21,2.31v22.94C379.79,151.83,378.8,152.87,377.58,152.87z"/>
		<path class="st2" d="M387.72,147.04h16.42c0.57,0,1.06,0.31,1.33,0.84c0.27,0.52,0.23,1.13-0.09,1.62l-8.36,12.89
			c-0.11,0.17-0.3,0.27-0.49,0.27h-8.81c-0.33,0-0.6-0.28-0.6-0.63v-14.37C387.12,147.32,387.39,147.04,387.72,147.04z"/>
		<polygon class="st2" points="149.42,226.24 184.45,209.92 173.57,231.92 		"/>
		<path class="st2" d="M181.3,233.74l28.96-15.21l0.03,0.01l0.02-0.04l10.49-5.51c3.23-1.69,7.17-0.32,8.79,3.06l1.79,3.73
			c1.62,3.38,0.31,7.51-2.92,9.21l-20.84,10.94L181.3,233.74z"/>
		<path class="st2" d="M239.51,332.33c-1.8-1.55-3.38-3.39-4.77-5.39c-0.1-0.14-0.18-0.28-0.28-0.42l8.94-6.45l15.83,3.96
			l-15.37,11.4C242.34,334.52,240.9,333.44,239.51,332.33z"/>
		<path class="st2" d="M208.29,216.46l57.57-132.03l0.46-1.05l47.7,12.84l24.33,25.49v53h106.5v-39.73h-19.62l-16.14-16.91h-53.53
			l-32.69-34.23l-64.77-16.84l-81.87,165.56l1.54,0.36c0.63-0.61,1.34-1.13,2.12-1.53L208.29,216.46z M381.38,150.56
			c0,2.19-1.7,3.97-3.79,3.97h-14.02c-2.09,0-3.79-1.78-3.79-3.97v-22.94c0-2.19,1.7-3.97,3.79-3.97h14.02
			c2.09,0,3.79,1.78,3.79,3.97V150.56z M408.9,139.36c0,1.73-1.34,3.13-2.99,3.13H388.8c-1.65,0-2.99-1.41-2.99-3.13v-12.48
			c0-1.73,1.34-3.13,2.99-3.13h17.11c1.65,0,2.99,1.41,2.99,3.13V139.36z M387.72,145.38h16.42c1.15,0,2.19,0.66,2.73,1.72
			c0.54,1.06,0.47,2.34-0.18,3.33l-8.36,12.89c-0.41,0.63-1.08,1-1.81,1h-8.81c-1.2,0-2.18-1.03-2.18-2.29v-14.37
			C385.53,146.41,386.51,145.38,387.72,145.38z M439.87,140.18c-1.14,0.35-2.27,0.52-3.41,0.65c-1.14,0.12-2.27,0.18-3.41,0.18
			c-1.14,0-2.27-0.06-3.41-0.18c-1.14-0.13-2.27-0.31-3.41-0.65c1.14-0.35,2.27-0.52,3.41-0.65c1.14-0.12,2.27-0.18,3.41-0.18
			c1.14,0,2.27,0.06,3.41,0.18C437.6,139.66,438.74,139.84,439.87,140.18z M439.87,144.11c-1.14,0.35-2.27,0.52-3.41,0.65
			c-1.14,0.12-2.27,0.18-3.41,0.18c-1.14,0-2.27-0.06-3.41-0.18c-1.14-0.13-2.27-0.31-3.41-0.65c1.14-0.35,2.27-0.52,3.41-0.65
			c1.14-0.12,2.27-0.18,3.41-0.18c1.14,0,2.27,0.06,3.41,0.18C437.6,143.59,438.74,143.76,439.87,144.11z M439.87,148.19
			c-1.14,0.35-2.27,0.52-3.41,0.65c-1.14,0.12-2.27,0.18-3.41,0.18c-1.14,0-2.27-0.06-3.41-0.18c-1.14-0.13-2.27-0.31-3.41-0.65
			c1.14-0.35,2.27-0.52,3.41-0.65c1.14-0.12,2.27-0.18,3.41-0.18c1.14,0,2.27,0.06,3.41,0.18
			C437.6,147.67,438.74,147.84,439.87,148.19z M439.87,151.49c-1.14,0.35-2.27,0.52-3.41,0.65c-1.14,0.12-2.27,0.18-3.41,0.18
			c-1.14,0-2.27-0.06-3.41-0.18c-1.14-0.13-2.27-0.31-3.41-0.65c1.14-0.35,2.27-0.52,3.41-0.65c1.14-0.12,2.27-0.18,3.41-0.18
			c1.14,0,2.27,0.06,3.41,0.18C437.6,150.97,438.74,151.14,439.87,151.49z M439.87,155.73c-1.14,0.35-2.27,0.52-3.41,0.65
			c-1.14,0.12-2.27,0.18-3.41,0.18c-1.14,0-2.27-0.06-3.41-0.18c-1.14-0.13-2.27-0.31-3.41-0.65c1.14-0.35,2.27-0.52,3.41-0.65
			c1.14-0.12,2.27-0.18,3.41-0.18c1.14,0,2.27,0.06,3.41,0.18C437.6,155.21,438.74,155.38,439.87,155.73z M429.65,158.81
			c1.14-0.11,2.28-0.15,3.41-0.14c1.14,0.01,2.27,0.08,3.41,0.22c1.14,0.15,2.27,0.33,3.4,0.69c-1.14,0.33-2.28,0.49-3.42,0.61
			c-1.14,0.11-2.28,0.15-3.41,0.14c-1.14-0.01-2.27-0.08-3.41-0.22c-1.14-0.14-2.27-0.33-3.4-0.69
			C427.37,159.09,428.51,158.92,429.65,158.81z M439.87,163.19c-1.14,0.33-2.28,0.49-3.42,0.61c-1.14,0.11-2.28,0.15-3.41,0.14
			c-1.14-0.01-2.27-0.08-3.41-0.22c-1.14-0.14-2.27-0.33-3.4-0.69c1.14-0.34,2.28-0.5,3.42-0.62c1.14-0.11,2.28-0.15,3.41-0.14
			c1.14,0.01,2.27,0.08,3.41,0.22C437.61,162.64,438.74,162.83,439.87,163.19z M348.53,168.04c7.57-0.24,15.14-0.27,22.7-0.21
			c3.78,0.01,7.56,0.09,11.34,0.14l11.34,0.27l11.34,0.39c3.78,0.17,7.56,0.3,11.34,0.51c7.56,0.38,15.11,0.84,22.66,1.51
			c-7.57,0.24-15.14,0.26-22.7,0.21c-3.78-0.01-7.56-0.09-11.34-0.14l-11.34-0.26l-11.34-0.38c-3.78-0.17-7.56-0.3-11.33-0.51
			C363.63,169.18,356.07,168.72,348.53,168.04z M320.04,96.18c1.86,1.49,3.61,3.1,5.31,4.75c1.71,1.65,3.37,3.34,4.99,5.07l2.4,2.63
			c0.78,0.9,1.58,1.78,2.34,2.7c1.54,1.82,3.04,3.68,4.43,5.65c-1.86-1.49-3.6-3.1-5.31-4.75c-0.86-0.81-1.69-1.67-2.53-2.5
			l-2.47-2.57c-1.63-1.73-3.2-3.51-4.75-5.33C322.93,100.02,321.43,98.16,320.04,96.18z M269.36,78.62c3.9,0.65,7.74,1.5,11.56,2.44
			c1.92,0.45,3.81,0.97,5.72,1.46l5.69,1.58l5.66,1.7c1.88,0.6,3.76,1.17,5.62,1.81c3.74,1.25,7.46,2.57,11.13,4.1
			c-3.9-0.65-7.74-1.51-11.56-2.44c-1.92-0.45-3.81-0.97-5.72-1.46l-5.69-1.58l-5.66-1.69c-1.87-0.6-3.76-1.17-5.62-1.81
			C276.74,81.48,273.02,80.16,269.36,78.62z M235.62,140.55c1.5-4.65,3.23-9.18,5.05-13.67c1.81-4.5,3.73-8.94,5.72-13.34
			c2-4.4,4.07-8.77,6.25-13.08c2.17-4.32,4.42-8.59,6.91-12.75c-1.5,4.65-3.24,9.18-5.06,13.67c-1.8,4.5-3.73,8.94-5.72,13.34
			c-2,4.4-4.06,8.77-6.25,13.08C240.37,132.12,238.11,136.39,235.62,140.55z M210.67,199.96c-2.69,5.58-5.47,11.13-8.54,16.53
			c1.87-5.98,4.02-11.82,6.26-17.61c2.26-5.79,4.62-11.53,7.09-17.22c2.47-5.69,5.03-11.33,7.71-16.92
			c2.69-5.58,5.47-11.13,8.53-16.53c-1.87,5.97-4.03,11.81-6.27,17.61c-2.25,5.79-4.62,11.53-7.09,17.22
			C215.91,188.72,213.34,194.37,210.67,199.96z"/>
		<path class="st2" d="M444.7,201.74c-2.73,0-4.96-2.33-4.96-5.19c0-2.86,2.22-5.19,4.96-5.19c2.73,0,4.96,2.33,4.96,5.19
			C449.66,199.41,447.44,201.74,444.7,201.74z"/>
		<path class="st2" d="M349.85,205.39c0,4.3,1.75,8.41,4.81,11.28c3.06,2.87,7.15,4.24,11.23,3.77l79.24-9.19
			c7.33-0.85,12.86-7.32,12.86-15.05c0-3-1.22-5.8-3.52-8.09c-3.26-3.25-8.48-5.26-13.55-5.26c-0.32,0-0.65,0.01-0.97,0.02
			l-71.51,2.05C358.02,185.46,349.85,194.45,349.85,205.39z M364.66,190.87c0.98,0,1.96,0.06,2.95,0.18
			c0.98,0.13,1.96,0.31,2.95,0.65c-0.98,0.34-1.96,0.52-2.95,0.65c-0.98,0.12-1.96,0.18-2.95,0.18c-0.98,0-1.96-0.06-2.95-0.18
			c-0.98-0.13-1.96-0.31-2.95-0.65c0.98-0.35,1.96-0.53,2.95-0.65C362.69,190.93,363.67,190.87,364.66,190.87z M377.06,188.04
			c-0.98,0.34-1.96,0.52-2.95,0.65c-0.98,0.12-1.96,0.18-2.95,0.18c-0.98,0-1.97-0.06-2.95-0.18c-0.98-0.13-1.96-0.31-2.95-0.65
			c0.98-0.35,1.96-0.53,2.95-0.65c0.98-0.12,1.96-0.18,2.95-0.18c0.98,0,1.96,0.06,2.95,0.18
			C375.1,187.52,376.08,187.69,377.06,188.04z M451.25,196.55c0,3.78-2.94,6.85-6.54,6.85c-3.61,0-6.54-3.07-6.54-6.85
			c0-3.78,2.94-6.85,6.54-6.85C448.31,189.69,451.25,192.77,451.25,196.55z M394.82,212.58c-6.96-0.67-13.88-1.89-20.62-3.76
			c6.91,0.98,13.81,1.7,20.73,2.05c3.46,0.15,6.92,0.26,10.38,0.22l2.59-0.03l2.59-0.06c1.72-0.06,3.44-0.17,5.16-0.31
			c3.45-0.25,6.89-0.62,10.34-1.04c3.45-0.38,6.89-0.87,10.33-1.34c1.72-0.24,3.43-0.51,5.15-0.78c0.86-0.14,1.71-0.28,2.55-0.44
			c0.41-0.08,0.87-0.18,1.18-0.27c0.39-0.16,0.78-0.32,1.17-0.51c1.55-0.72,3.03-1.66,4.45-2.69c0.71-0.51,1.4-1.06,2.07-1.63
			c0.67-0.58,1.33-1.17,1.87-1.88c-0.95,1.54-2.26,2.8-3.58,4c-0.66,0.6-1.37,1.16-2.09,1.69c-0.72,0.53-1.47,1.03-2.25,1.48
			c-0.39,0.23-0.8,0.43-1.2,0.63c-0.27,0.11-0.48,0.17-0.7,0.24l-0.65,0.18c-0.86,0.23-1.71,0.43-2.56,0.63
			c-1.71,0.39-3.42,0.73-5.14,1.06c-6.87,1.31-13.78,2.31-20.77,2.88C408.8,213.41,401.79,213.25,394.82,212.58z M374.64,213.49
			c-1.27-0.32-2.54-0.75-3.75-1.37c-1.21-0.62-2.37-1.44-3.3-2.56c-0.94-1.11-1.57-2.54-1.8-4.01c-0.13-0.73-0.14-1.47-0.15-2.14
			c-0.01-0.7,0.01-1.41,0.1-2.13c0.18-1.43,0.6-2.9,1.41-4.16c0.79-1.27,1.87-2.27,3.03-3.05c1.15-0.79,2.39-1.35,3.64-1.83
			c1.25-0.47,2.51-0.84,3.78-1.15c2.54-0.61,5.1-1.02,7.66-1.33c10.21-0.91,20.35-1.59,30.54-2.25c10.18-0.65,20.36-1.22,30.56-1.57
			c-10.13,1.27-20.28,2.32-30.43,3.29c-5.07,0.51-10.15,0.93-15.23,1.4l-7.62,0.64l-3.81,0.32l-1.9,0.16l-1.87,0.21
			c-2.51,0.29-5,0.67-7.43,1.24c-2.41,0.58-4.81,1.35-6.82,2.64c-1,0.64-1.87,1.43-2.5,2.4c-0.64,0.95-1,2.09-1.18,3.3
			c-0.08,0.61-0.12,1.23-0.12,1.86c0.01,0.67,0,1.27,0.08,1.85c0.16,1.17,0.6,2.27,1.32,3.19c0.72,0.92,1.68,1.66,2.74,2.25
			c1.06,0.59,2.22,1.03,3.41,1.4c2.39,0.72,4.89,1.1,7.41,1.36c5.04,0.53,10.16,0.48,15.25,0.78c-5.1,0.18-10.19,0.53-15.32,0.29
			C379.77,214.4,377.19,214.13,374.64,213.49z M361.33,216.72c0.98-0.35,1.96-0.53,2.95-0.65c0.98-0.12,1.97-0.18,2.95-0.18
			c0.98,0,1.96,0.06,2.95,0.18c0.98,0.13,1.96,0.31,2.95,0.65c-0.98,0.34-1.96,0.52-2.95,0.65c-0.98,0.12-1.96,0.18-2.95,0.18
			c-0.98,0-1.96-0.06-2.95-0.18C363.3,217.25,362.31,217.07,361.33,216.72z M356.28,214.05c0.98-0.35,1.96-0.53,2.95-0.65
			c0.98-0.12,1.96-0.18,2.95-0.18c0.98,0,1.96,0.06,2.95,0.18c0.98,0.13,1.96,0.31,2.95,0.65c-0.98,0.34-1.96,0.52-2.95,0.65
			c-0.98,0.12-1.96,0.18-2.95,0.18c-0.98,0-1.96-0.06-2.95-0.18C358.25,214.57,357.27,214.39,356.28,214.05z M354.38,210.7
			c0.98-0.35,1.96-0.53,2.95-0.65c0.98-0.12,1.96-0.18,2.95-0.18c0.98,0,1.96,0.06,2.95,0.18c0.98,0.13,1.96,0.31,2.95,0.65
			c-0.98,0.34-1.96,0.52-2.95,0.65c-0.98,0.12-1.96,0.18-2.95,0.18c-0.98,0-1.97-0.06-2.95-0.18
			C356.35,211.23,355.37,211.05,354.38,210.7z M353.48,207.36c0.98-0.35,1.96-0.53,2.95-0.65c0.98-0.12,1.96-0.18,2.95-0.18
			c0.98,0,1.96,0.06,2.95,0.18c0.98,0.13,1.96,0.31,2.95,0.65c-0.98,0.34-1.96,0.52-2.95,0.65c-0.98,0.12-1.96,0.18-2.95,0.18
			c-0.98,0-1.96-0.06-2.95-0.18C355.45,207.89,354.47,207.71,353.48,207.36z M352.87,203.32c0.98-0.35,1.96-0.53,2.95-0.65
			c0.98-0.12,1.96-0.18,2.95-0.18c0.98,0,1.96,0.06,2.95,0.18c0.98,0.13,1.96,0.31,2.95,0.65c-0.98,0.34-1.96,0.52-2.95,0.65
			c-0.98,0.12-1.96,0.18-2.95,0.18c-0.98,0-1.96-0.06-2.95-0.18C354.83,203.85,353.85,203.67,352.87,203.32z M352.87,199.35
			c0.98-0.35,1.96-0.53,2.95-0.65c0.98-0.12,1.96-0.18,2.95-0.18c0.98,0,1.96,0.06,2.95,0.18c0.98,0.13,1.96,0.31,2.95,0.65
			c-0.98,0.34-1.96,0.52-2.95,0.65c-0.98,0.12-1.96,0.18-2.95,0.18c-0.98,0-1.96-0.06-2.95-0.18
			C354.83,199.87,353.85,199.69,352.87,199.35z M355.16,195.37c0.98-0.35,1.96-0.53,2.95-0.65c0.98-0.12,1.97-0.18,2.95-0.18
			c0.98,0,1.96,0.06,2.95,0.18c0.98,0.13,1.96,0.31,2.95,0.65c-0.98,0.34-1.96,0.52-2.95,0.65c-0.98,0.12-1.96,0.18-2.95,0.18
			c-0.98,0-1.96-0.06-2.95-0.18C357.13,195.89,356.15,195.71,355.16,195.37z"/>
		<polygon class="st2" points="203.31,263.24 108.86,237.86 117.11,221.48 209.91,243.31 		"/>
		<path d="M137.05,340.48c-3.79-5.67-6.25-12.32-7.05-19.14c-0.84-6.83-0.04-13.78,2.11-20.13c-1.09,6.63-1.25,13.35-0.08,19.79
			c1.17,6.44,3.62,12.56,7.18,17.89c3.57,5.34,8.19,9.87,13.45,13.45c5.27,3.58,11.17,6.18,17.36,7.99
			c-6.4-0.67-12.73-2.76-18.43-6.14C145.9,350.85,140.84,346.15,137.05,340.48z"/>
		<path d="M106.49,310.08c1.13,6.44,3.38,12.61,6.56,18.22c3.17,5.62,7.25,10.65,11.91,15.07c4.66,4.43,9.95,8.13,15.5,11.49
			c-6.01-2.32-11.76-5.58-16.83-9.84c-5.09-4.22-9.52-9.4-12.85-15.31c-3.33-5.9-5.56-12.52-6.32-19.32
			c-0.77-6.79-0.06-13.75,2.2-20.04C105.46,296.95,105.39,303.63,106.49,310.08z"/>
		<path d="M124.07,334.13c-3.16-5.94-5.25-12.49-6.17-19.18c-0.94-6.68-0.74-13.53,0.7-20.02c-0.35,6.65,0.05,13.25,1.33,19.65
			c1.3,6.38,3.44,12.55,6.45,18.21c3.01,5.66,6.9,10.79,11.58,15.07c4.68,4.27,10.16,7.6,16.14,9.88
			c-6.27-1.16-12.31-4.07-17.44-8.21C131.49,345.4,127.23,340.07,124.07,334.13z"/>
		<path d="M98.4,319.09c2.47,5.49,5.5,10.71,9.09,15.49c3.63,4.74,7.8,9.09,12.9,12.29c-2.8-1.05-5.41-2.66-7.83-4.52
			c-2.41-1.88-4.63-4.03-6.64-6.37c-4.05-4.66-7.35-10.02-9.92-15.72c-2.55-5.71-4.38-11.81-5.1-18.08
			c-0.37-3.13-0.44-6.31-0.18-9.44c0.29-3.13,0.9-6.23,2.01-9.12c-1.12,6.11-0.87,12.27,0.2,18.24
			C94.04,307.82,95.94,313.59,98.4,319.09z"/>
		<path d="M85.71,310.35c1.75,4.83,3.99,9.46,6.66,13.84c2.69,4.36,5.82,8.44,9.44,12.17c-4.31-2.82-8.03-6.65-11.13-10.92
			c-3.12-4.28-5.61-9.06-7.44-14.1c-1.82-5.04-2.98-10.37-3.28-15.75c-0.32-5.37,0.21-10.81,1.78-15.87
			c-0.5,5.29-0.42,10.52,0.26,15.66C82.7,300.5,83.95,305.52,85.71,310.35z"/>
		<path d="M212.62,290.15c0.02-1.54,0.07-3.08,0.18-4.63c0.38-6.19,1.47-12.32,3.39-18.14c-0.84,6.08-1.34,12.15-1.32,18.21
			c0.04,3.01,0.11,6.09,0.29,9.08c0.19,3.01,0.51,5.99,1.04,8.94c1.01,5.9,2.81,11.63,5.23,17.09c2.45,5.45,5.57,10.59,9.16,15.46
			c-8.78-8.19-14.86-19.74-16.99-32.06c-0.54-3.08-0.83-6.2-0.94-9.3C212.6,293.25,212.59,291.7,212.62,290.15z"/>
		<path d="M158,337.13c-0.96-1.64-1.8-3.38-2.47-5.19c-0.33-0.91-0.64-1.84-0.85-2.78l-0.34-1.41c-0.12-0.47-0.18-0.96-0.27-1.43
			c-0.37-1.91-0.47-3.88-0.49-5.84c0.07-1.96,0.2-3.92,0.59-5.84c0.71-3.86,2.16-7.52,3.93-10.93c1.83-3.39,4.06-6.5,6.51-9.36
			c2.48-2.84,5.16-5.46,8.02-7.83c5.7-4.76,11.97-8.7,18.56-11.8c-6.07,4.1-11.91,8.48-17.23,13.44c-2.63,2.51-5.19,5.09-7.47,7.92
			c-2.29,2.81-4.4,5.78-6.08,8.99c-1.7,3.19-3.06,6.57-3.79,10.12c-0.43,1.76-0.6,3.57-0.73,5.37l-0.02,1.36
			c-0.01,0.45-0.01,0.91,0.02,1.36l0.06,1.36c0.02,0.45,0.1,0.9,0.14,1.36c0.06,0.45,0.09,0.91,0.18,1.36l0.25,1.35
			c0.15,0.91,0.4,1.77,0.64,2.66c0.5,1.76,1.17,3.46,1.96,5.12c1.56,3.32,3.69,6.37,6.27,9.01
			C162.44,343.31,159.95,340.4,158,337.13z"/>
		<path d="M140.39,255.8c5.8,1.48,11.57,3.07,17.31,4.79c5.74,1.73,11.46,3.55,17.1,5.7c-5.95-0.81-11.83-1.94-17.69-3.17
			c-5.85-1.24-11.68-2.61-17.47-4.09c-5.8-1.48-11.57-3.07-17.31-4.78c-5.74-1.73-11.46-3.55-17.1-5.71
			c5.95,0.81,11.83,1.94,17.69,3.17C128.77,252.95,134.6,254.31,140.39,255.8z"/>
		<path d="M371.23,167.83c3.78,0.01,7.56,0.09,11.34,0.14l11.34,0.27l11.34,0.39c3.78,0.17,7.56,0.3,11.34,0.51
			c7.56,0.38,15.11,0.84,22.66,1.51c-7.57,0.24-15.14,0.26-22.7,0.21c-3.78-0.01-7.56-0.09-11.34-0.14l-11.34-0.26l-11.34-0.38
			c-3.78-0.17-7.56-0.3-11.33-0.51c-7.56-0.38-15.11-0.84-22.66-1.52C356.1,167.8,363.66,167.77,371.23,167.83z"/>
		<path d="M208.39,198.88c2.26-5.79,4.62-11.53,7.09-17.22c2.47-5.69,5.03-11.33,7.71-16.92c2.69-5.58,5.47-11.13,8.53-16.53
			c-1.87,5.97-4.03,11.81-6.27,17.61c-2.25,5.79-4.62,11.53-7.09,17.22c-2.46,5.69-5.03,11.33-7.71,16.92
			c-2.69,5.58-5.47,11.13-8.54,16.53C203.99,210.51,206.15,204.67,208.39,198.88z"/>
		<path d="M246.4,113.54c2-4.4,4.07-8.77,6.25-13.08c2.17-4.32,4.42-8.59,6.91-12.75c-1.5,4.65-3.24,9.18-5.06,13.67
			c-1.8,4.5-3.73,8.94-5.72,13.34c-2,4.4-4.06,8.77-6.25,13.08c-2.17,4.32-4.42,8.59-6.92,12.75c1.5-4.65,3.23-9.18,5.05-13.67
			C242.48,122.38,244.4,117.94,246.4,113.54z"/>
		<path d="M286.64,82.52l5.69,1.58l5.66,1.7c1.88,0.6,3.76,1.17,5.62,1.81c3.74,1.25,7.46,2.57,11.13,4.1
			c-3.9-0.65-7.74-1.51-11.56-2.44c-1.92-0.45-3.81-0.97-5.72-1.46l-5.69-1.58l-5.66-1.69c-1.87-0.6-3.76-1.17-5.62-1.81
			c-3.74-1.25-7.46-2.57-11.12-4.11c3.9,0.65,7.74,1.5,11.56,2.44C282.84,81.51,284.73,82.03,286.64,82.52z"/>
		<path d="M330.35,106.01l2.4,2.63c0.78,0.9,1.58,1.78,2.34,2.7c1.54,1.82,3.04,3.68,4.43,5.65c-1.86-1.49-3.6-3.1-5.31-4.75
			c-0.86-0.81-1.69-1.67-2.53-2.5l-2.47-2.57c-1.63-1.73-3.2-3.51-4.75-5.33c-1.54-1.82-3.04-3.68-4.43-5.66
			c1.86,1.49,3.61,3.1,5.31,4.75C327.06,102.58,328.73,104.27,330.35,106.01z"/>
		<path d="M230.99,352.57c3.01-1.01,6.01-2.06,9-3.16c3-1.09,5.99-2.24,9.07-3.3c-2.57,2.08-5.37,3.8-8.27,5.31
			c-2.9,1.5-5.92,2.76-9,3.79c-3.09,1.03-6.24,1.83-9.44,2.36c-3.2,0.53-6.43,0.82-9.67,0.68c3.1-1.01,6.17-1.88,9.22-2.81
			C224.96,354.53,227.98,353.57,230.99,352.57z"/>
		<path d="M181.65,308.45c2.02,1.34,4,2.75,5.92,4.26c1.91,1.52,3.79,3.1,5.52,4.92c-2.32-0.85-4.49-1.93-6.62-3.09
			c-2.13-1.16-4.2-2.42-6.22-3.75c-2.03-1.33-4-2.75-5.92-4.25c-1.92-1.52-3.79-3.1-5.52-4.93c2.32,0.85,4.49,1.93,6.63,3.08
			C177.56,305.86,179.63,307.12,181.65,308.45z"/>
		<path d="M185.79,306.4c-2.03-1.33-4-2.75-5.92-4.25c-1.92-1.52-3.79-3.1-5.52-4.93c2.32,0.85,4.49,1.93,6.63,3.08
			c2.13,1.16,4.2,2.42,6.22,3.75c2.02,1.34,4,2.75,5.92,4.26c1.91,1.52,3.79,3.1,5.52,4.92c-2.32-0.85-4.49-1.93-6.62-3.09
			C189.89,308.99,187.82,307.73,185.79,306.4z"/>
		<path d="M185.42,296.96c-1.92-1.52-3.79-3.1-5.52-4.93c2.32,0.85,4.49,1.93,6.63,3.08c2.13,1.16,4.2,2.42,6.22,3.75
			c2.02,1.34,4,2.75,5.92,4.26c1.91,1.52,3.79,3.1,5.52,4.92c-2.32-0.85-4.49-1.93-6.62-3.09c-2.13-1.16-4.2-2.42-6.22-3.75
			C189.31,299.88,187.34,298.47,185.42,296.96z"/>
		<path d="M197.54,295.1c2.02,1.34,4,2.75,5.92,4.26c1.91,1.52,3.79,3.1,5.52,4.92c-2.32-0.85-4.49-1.93-6.62-3.09
			c-2.13-1.16-4.2-2.42-6.22-3.75c-2.03-1.33-4-2.75-5.92-4.25c-1.92-1.52-3.79-3.1-5.52-4.93c2.32,0.85,4.49,1.93,6.63,3.08
			C193.45,292.51,195.52,293.77,197.54,295.1z"/>
		<path d="M179.36,316.4c2.31,1.61,4.57,3.3,6.78,5.08c2.2,1.79,4.35,3.65,6.36,5.73c-2.61-1.13-5.08-2.49-7.51-3.93
			c-2.42-1.44-4.78-2.97-7.09-4.58c-2.31-1.61-4.57-3.3-6.78-5.07c-2.2-1.79-4.35-3.65-6.36-5.74c2.62,1.13,5.09,2.49,7.51,3.92
			C174.68,313.26,177.05,314.79,179.36,316.4z"/>
		<path d="M178.64,328.13c-2.31-1.61-4.57-3.3-6.78-5.07c-2.2-1.79-4.35-3.65-6.36-5.74c2.62,1.13,5.09,2.49,7.51,3.92
			c2.42,1.44,4.78,2.97,7.09,4.58c2.31,1.61,4.57,3.3,6.78,5.08c2.2,1.79,4.35,3.65,6.36,5.73c-2.61-1.13-5.08-2.49-7.51-3.93
			C183.32,331.27,180.95,329.74,178.64,328.13z"/>
		<path d="M178.19,337.39c-2.31-1.61-4.57-3.3-6.78-5.07c-2.2-1.79-4.35-3.65-6.36-5.74c2.62,1.13,5.09,2.49,7.51,3.92
			c2.42,1.44,4.78,2.97,7.09,4.58c2.31,1.61,4.57,3.3,6.78,5.08c2.2,1.79,4.35,3.65,6.36,5.73c-2.61-1.13-5.08-2.49-7.51-3.93
			C182.87,340.53,180.5,339,178.19,337.39z"/>
		<path d="M433.05,141.01c-1.14,0-2.27-0.06-3.41-0.18c-1.14-0.13-2.27-0.31-3.41-0.65c1.14-0.35,2.27-0.52,3.41-0.65
			c1.14-0.12,2.27-0.18,3.41-0.18c1.14,0,2.27,0.06,3.41,0.18c1.14,0.13,2.27,0.31,3.41,0.65c-1.14,0.35-2.27,0.52-3.41,0.65
			C435.33,140.95,434.19,141.01,433.05,141.01z"/>
		<path d="M433.05,144.94c-1.14,0-2.27-0.06-3.41-0.18c-1.14-0.13-2.27-0.31-3.41-0.65c1.14-0.35,2.27-0.52,3.41-0.65
			c1.14-0.12,2.27-0.18,3.41-0.18c1.14,0,2.27,0.06,3.41,0.18c1.14,0.13,2.27,0.3,3.41,0.65c-1.14,0.35-2.27,0.52-3.41,0.65
			C435.33,144.88,434.19,144.94,433.05,144.94z"/>
		<path d="M433.05,149.02c-1.14,0-2.27-0.06-3.41-0.18c-1.14-0.13-2.27-0.31-3.41-0.65c1.14-0.35,2.27-0.52,3.41-0.65
			c1.14-0.12,2.27-0.18,3.41-0.18c1.14,0,2.27,0.06,3.41,0.18c1.14,0.13,2.27,0.3,3.41,0.65c-1.14,0.35-2.27,0.52-3.41,0.65
			C435.33,148.96,434.19,149.02,433.05,149.02z"/>
		<path d="M358.76,202.49c0.98,0,1.96,0.06,2.95,0.18c0.98,0.13,1.96,0.31,2.95,0.65c-0.98,0.34-1.96,0.52-2.95,0.65
			c-0.98,0.12-1.96,0.18-2.95,0.18c-0.98,0-1.96-0.06-2.95-0.18c-0.98-0.13-1.96-0.31-2.95-0.65c0.98-0.35,1.96-0.53,2.95-0.65
			C356.8,202.55,357.78,202.49,358.76,202.49z"/>
		<path d="M359.38,206.53c0.98,0,1.96,0.06,2.95,0.18c0.98,0.13,1.96,0.31,2.95,0.65c-0.98,0.34-1.96,0.52-2.95,0.65
			c-0.98,0.12-1.96,0.18-2.95,0.18c-0.98,0-1.96-0.06-2.95-0.18c-0.98-0.13-1.96-0.31-2.95-0.65c0.98-0.35,1.96-0.53,2.95-0.65
			C357.41,206.59,358.4,206.53,359.38,206.53z"/>
		<path d="M360.28,209.87c0.98,0,1.96,0.06,2.95,0.18c0.98,0.13,1.96,0.31,2.95,0.65c-0.98,0.34-1.96,0.52-2.95,0.65
			c-0.98,0.12-1.96,0.18-2.95,0.18c-0.98,0-1.97-0.06-2.95-0.18c-0.98-0.13-1.96-0.31-2.95-0.65c0.98-0.35,1.96-0.53,2.95-0.65
			C358.31,209.93,359.3,209.87,360.28,209.87z"/>
		<path d="M362.18,213.22c0.98,0,1.96,0.06,2.95,0.18c0.98,0.13,1.96,0.31,2.95,0.65c-0.98,0.34-1.96,0.52-2.95,0.65
			c-0.98,0.12-1.96,0.18-2.95,0.18c-0.98,0-1.96-0.06-2.95-0.18c-0.98-0.13-1.96-0.31-2.95-0.65c0.98-0.35,1.96-0.53,2.95-0.65
			C360.21,213.27,361.2,213.21,362.18,213.22z"/>
		<path d="M367.23,215.89c0.98,0,1.96,0.06,2.95,0.18c0.98,0.13,1.96,0.31,2.95,0.65c-0.98,0.34-1.96,0.52-2.95,0.65
			c-0.98,0.12-1.96,0.18-2.95,0.18c-0.98,0-1.96-0.06-2.95-0.18c-0.98-0.13-1.96-0.31-2.95-0.65c0.98-0.35,1.96-0.53,2.95-0.65
			C365.26,215.95,366.24,215.89,367.23,215.89z"/>
		<path d="M358.76,198.51c0.98,0,1.96,0.06,2.95,0.18c0.98,0.13,1.96,0.31,2.95,0.65c-0.98,0.34-1.96,0.52-2.95,0.65
			c-0.98,0.12-1.96,0.18-2.95,0.18c-0.98,0-1.96-0.06-2.95-0.18c-0.98-0.13-1.96-0.31-2.95-0.65c0.98-0.35,1.96-0.53,2.95-0.65
			C356.8,198.57,357.78,198.51,358.76,198.51z"/>
		<path d="M361.06,194.54c0.98,0,1.96,0.06,2.95,0.18c0.98,0.13,1.96,0.31,2.95,0.65c-0.98,0.34-1.96,0.52-2.95,0.65
			c-0.98,0.12-1.96,0.18-2.95,0.18c-0.98,0-1.96-0.06-2.95-0.18c-0.98-0.13-1.96-0.31-2.95-0.65c0.98-0.35,1.96-0.53,2.95-0.65
			C359.09,194.59,360.08,194.54,361.06,194.54z"/>
		<path d="M370.55,191.7c-0.98,0.34-1.96,0.52-2.95,0.65c-0.98,0.12-1.96,0.18-2.95,0.18c-0.98,0-1.96-0.06-2.95-0.18
			c-0.98-0.13-1.96-0.31-2.95-0.65c0.98-0.35,1.96-0.53,2.95-0.65c0.98-0.12,1.96-0.18,2.95-0.18c0.98,0,1.96,0.06,2.95,0.18
			C368.59,191.18,369.57,191.36,370.55,191.7z"/>
		<path d="M371.17,188.87c-0.98,0-1.97-0.06-2.95-0.18c-0.98-0.13-1.96-0.31-2.95-0.65c0.98-0.35,1.96-0.53,2.95-0.65
			c0.98-0.12,1.96-0.18,2.95-0.18c0.98,0,1.96,0.06,2.95,0.18c0.98,0.13,1.96,0.31,2.95,0.65c-0.98,0.34-1.96,0.52-2.95,0.65
			C373.13,188.81,372.15,188.87,371.17,188.87z"/>
		<path d="M433.05,152.32c-1.14,0-2.27-0.06-3.41-0.18c-1.14-0.13-2.27-0.31-3.41-0.65c1.14-0.35,2.27-0.52,3.41-0.65
			c1.14-0.12,2.27-0.18,3.41-0.18c1.14,0,2.27,0.06,3.41,0.18c1.14,0.13,2.27,0.3,3.41,0.65c-1.14,0.35-2.27,0.52-3.41,0.65
			C435.33,152.26,434.19,152.32,433.05,152.32z"/>
		<path d="M433.05,156.56c-1.14,0-2.27-0.06-3.41-0.18c-1.14-0.13-2.27-0.31-3.41-0.65c1.14-0.35,2.27-0.52,3.41-0.65
			c1.14-0.12,2.27-0.18,3.41-0.18c1.14,0,2.27,0.06,3.41,0.18c1.14,0.13,2.27,0.3,3.41,0.65c-1.14,0.35-2.27,0.52-3.41,0.65
			C435.33,156.5,434.19,156.56,433.05,156.56z"/>
		<path d="M433.06,158.67c1.14,0.01,2.27,0.08,3.41,0.22c1.14,0.15,2.27,0.33,3.4,0.69c-1.14,0.33-2.28,0.49-3.42,0.61
			c-1.14,0.11-2.28,0.15-3.41,0.14c-1.14-0.01-2.27-0.08-3.41-0.22c-1.14-0.14-2.27-0.33-3.4-0.69c1.14-0.34,2.28-0.5,3.42-0.62
			C430.79,158.7,431.92,158.65,433.06,158.67z"/>
		<path d="M433.04,163.94c-1.14-0.01-2.27-0.08-3.41-0.22c-1.14-0.14-2.27-0.33-3.4-0.69c1.14-0.34,2.28-0.5,3.42-0.62
			c1.14-0.11,2.28-0.15,3.41-0.14c1.14,0.01,2.27,0.08,3.41,0.22c1.14,0.15,2.27,0.33,3.4,0.69c-1.14,0.33-2.28,0.49-3.42,0.61
			C435.32,163.91,434.18,163.95,433.04,163.94z"/>
		<path d="M408.9,139.36v-12.48c0-1.73-1.34-3.13-2.99-3.13H388.8c-1.65,0-2.99,1.41-2.99,3.13v12.48c0,1.73,1.34,3.13,2.99,3.13
			h17.11C407.56,142.49,408.9,141.09,408.9,139.36z M407.32,139.36c0,0.81-0.63,1.47-1.41,1.47H388.8c-0.78,0-1.41-0.66-1.41-1.47
			v-12.48c0-0.81,0.63-1.47,1.41-1.47h17.11c0.78,0,1.41,0.66,1.41,1.47V139.36z"/>
		<path d="M381.38,150.56v-22.94c0-2.19-1.7-3.97-3.79-3.97h-14.02c-2.09,0-3.79,1.78-3.79,3.97v22.94c0,2.19,1.7,3.97,3.79,3.97
			h14.02C379.67,154.53,381.38,152.75,381.38,150.56z M379.79,150.56c0,1.27-0.99,2.31-2.21,2.31h-14.02c-1.22,0-2.2-1.04-2.2-2.31
			v-22.94c0-1.27,0.99-2.31,2.2-2.31h14.02c1.22,0,2.21,1.04,2.21,2.31V150.56z"/>
		<path d="M385.53,147.67v14.37c0,1.26,0.98,2.29,2.18,2.29h8.81c0.72,0,1.4-0.37,1.81-1l8.36-12.89c0.65-0.99,0.71-2.27,0.18-3.33
			c-0.54-1.06-1.58-1.72-2.73-1.72h-16.42C386.51,145.38,385.53,146.41,385.53,147.67z M387.12,147.67c0-0.34,0.27-0.63,0.6-0.63
			h16.42c0.57,0,1.06,0.31,1.33,0.84c0.27,0.52,0.23,1.13-0.09,1.62l-8.36,12.89c-0.11,0.17-0.3,0.27-0.49,0.27h-8.81
			c-0.33,0-0.6-0.28-0.6-0.63V147.67z"/>
		<path d="M374.21,208.82c6.91,0.98,13.81,1.7,20.73,2.05c3.46,0.15,6.92,0.26,10.38,0.22l2.59-0.03l2.59-0.06
			c1.72-0.06,3.44-0.17,5.16-0.31c3.45-0.25,6.89-0.62,10.34-1.04c3.45-0.38,6.89-0.87,10.33-1.34c1.72-0.24,3.43-0.51,5.15-0.78
			c0.86-0.14,1.71-0.28,2.55-0.44c0.41-0.08,0.87-0.18,1.18-0.27c0.39-0.16,0.78-0.32,1.17-0.51c1.55-0.72,3.03-1.66,4.45-2.69
			c0.71-0.51,1.4-1.06,2.07-1.63c0.67-0.58,1.33-1.17,1.87-1.88c-0.95,1.54-2.26,2.8-3.58,4c-0.66,0.6-1.37,1.16-2.09,1.69
			c-0.72,0.53-1.47,1.03-2.25,1.48c-0.39,0.23-0.8,0.43-1.2,0.63c-0.27,0.11-0.48,0.17-0.7,0.24l-0.65,0.18
			c-0.86,0.23-1.71,0.43-2.56,0.63c-1.71,0.39-3.42,0.73-5.14,1.06c-6.87,1.31-13.78,2.31-20.77,2.88
			c-7.02,0.52-14.02,0.35-20.99-0.31C387.86,211.91,380.94,210.69,374.21,208.82z"/>
		<path d="M367.59,209.56c-0.94-1.11-1.57-2.54-1.8-4.01c-0.13-0.73-0.14-1.47-0.15-2.14c-0.01-0.7,0.01-1.41,0.1-2.13
			c0.18-1.43,0.6-2.9,1.41-4.16c0.79-1.27,1.87-2.27,3.03-3.05c1.15-0.79,2.39-1.35,3.64-1.83c1.25-0.47,2.51-0.84,3.78-1.15
			c2.54-0.61,5.1-1.02,7.66-1.33c10.21-0.91,20.35-1.59,30.54-2.25c10.18-0.65,20.36-1.22,30.56-1.57
			c-10.13,1.27-20.28,2.32-30.43,3.29c-5.07,0.51-10.15,0.93-15.23,1.4l-7.62,0.64l-3.81,0.32l-1.9,0.16l-1.87,0.21
			c-2.51,0.29-5,0.67-7.43,1.24c-2.41,0.58-4.81,1.35-6.82,2.64c-1,0.64-1.87,1.43-2.5,2.4c-0.64,0.95-1,2.09-1.18,3.3
			c-0.08,0.61-0.12,1.23-0.12,1.86c0.01,0.67,0,1.27,0.08,1.85c0.16,1.17,0.6,2.27,1.32,3.19c0.72,0.92,1.68,1.66,2.74,2.25
			c1.06,0.59,2.22,1.03,3.41,1.4c2.39,0.72,4.89,1.1,7.41,1.36c5.04,0.53,10.16,0.48,15.25,0.78c-5.1,0.18-10.19,0.53-15.32,0.29
			c-2.56-0.13-5.14-0.4-7.69-1.04c-1.27-0.32-2.54-0.75-3.75-1.37C369.69,211.5,368.52,210.68,367.59,209.56z"/>
		<path d="M304.87,196.7c0.98-0.12,1.96-0.18,2.95-0.18c0.98,0,1.96,0.06,2.95,0.18c0.98,0.13,1.96,0.31,2.95,0.65
			c-0.98,0.34-1.96,0.52-2.95,0.65c-0.98,0.12-1.96,0.18-2.95,0.18c-0.98,0-1.96-0.06-2.95-0.18c-0.98-0.13-1.96-0.31-2.95-0.65
			C302.9,197.01,303.88,196.83,304.87,196.7z"/>
		<path d="M305.49,200.74c0.98-0.12,1.96-0.18,2.95-0.18c0.98,0,1.96,0.06,2.95,0.18c0.98,0.13,1.96,0.31,2.95,0.65
			c-0.98,0.34-1.96,0.52-2.95,0.65c-0.98,0.12-1.96,0.18-2.95,0.18c-0.98,0-1.96-0.06-2.95-0.18c-0.98-0.13-1.96-0.31-2.95-0.65
			C303.52,201.04,304.5,200.87,305.49,200.74z"/>
		<path d="M304.32,205.56c0.98-0.35,1.96-0.53,2.95-0.65c0.98-0.12,1.96-0.18,2.95-0.18c0.98,0,1.96,0.06,2.95,0.18
			c0.98,0.13,1.96,0.31,2.95,0.65c-0.98,0.34-1.96,0.52-2.95,0.65c-0.98,0.12-1.96,0.18-2.95,0.18c-0.98,0-1.96-0.06-2.95-0.18
			C306.28,206.09,305.3,205.91,304.32,205.56z"/>
		<path d="M314.33,208.08c0.98,0,1.96,0.06,2.95,0.18c0.98,0.13,1.96,0.31,2.95,0.65c-0.98,0.34-1.96,0.52-2.95,0.65
			c-0.98,0.12-1.96,0.18-2.95,0.18c-0.98,0-1.96-0.06-2.95-0.18c-0.98-0.13-1.96-0.31-2.95-0.65c0.98-0.35,1.96-0.53,2.95-0.65
			C312.36,208.13,313.35,208.07,314.33,208.08z"/>
		<path d="M304.87,192.72c0.98-0.12,1.96-0.18,2.95-0.18c0.98,0,1.96,0.06,2.95,0.18c0.98,0.13,1.96,0.31,2.95,0.65
			c-0.98,0.34-1.96,0.52-2.95,0.65c-0.98,0.12-1.96,0.18-2.95,0.18c-0.98,0-1.96-0.06-2.95-0.18c-0.98-0.13-1.96-0.31-2.95-0.65
			C302.9,193.03,303.88,192.85,304.87,192.72z"/>
		<path d="M310.11,188.57c0.98,0,1.96,0.06,2.95,0.18c0.98,0.13,1.97,0.31,2.95,0.65c-0.98,0.34-1.96,0.52-2.95,0.65
			c-0.98,0.12-1.96,0.18-2.95,0.18c-0.98,0-1.96-0.06-2.95-0.18c-0.98-0.13-1.96-0.31-2.95-0.65c0.98-0.35,1.96-0.53,2.95-0.65
			C308.15,188.62,309.13,188.56,310.11,188.57z"/>
		<path d="M313.71,184.9c0.98,0,1.96,0.06,2.95,0.18c0.98,0.13,1.97,0.31,2.95,0.65c-0.98,0.34-1.96,0.52-2.95,0.65
			c-0.98,0.12-1.96,0.18-2.95,0.18c-0.98,0-1.96-0.06-2.95-0.18c-0.98-0.13-1.96-0.31-2.95-0.65c0.98-0.35,1.96-0.53,2.95-0.65
			C311.74,184.96,312.73,184.9,313.71,184.9z"/>
		<path d="M320.22,181.24c0.98,0,1.96,0.06,2.95,0.18c0.98,0.13,1.96,0.31,2.95,0.65c-0.98,0.34-1.96,0.52-2.95,0.65
			c-0.98,0.12-1.96,0.18-2.95,0.18c-0.98,0-1.96-0.06-2.95-0.18c-0.98-0.13-1.96-0.31-2.95-0.65c0.98-0.35,1.96-0.53,2.95-0.65
			C318.26,181.29,319.24,181.24,320.22,181.24z"/>
		<path d="M337.19,180.72c0.64-0.09,1.28-0.18,1.94-0.24c0.32-0.03,0.66-0.08,0.97-0.1l0.95-0.04l7.63-0.34
			c5.09-0.22,10.17-0.4,15.26-0.58c10.18-0.33,20.36-0.58,30.55-0.58c-10.14,0.99-20.29,1.73-30.44,2.39
			c-5.08,0.32-10.15,0.63-15.23,0.9l-7.62,0.4c-0.64,0.03-1.27,0.06-1.88,0.15c-0.61,0.06-1.23,0.15-1.85,0.24
			c-1.24,0.17-2.47,0.38-3.69,0.64c-2.44,0.52-4.84,1.22-7.12,2.19c-2.28,0.97-4.44,2.23-6.25,3.87c-0.9,0.83-1.7,1.76-2.34,2.78
			c-0.63,1.03-1.12,2.15-1.36,3.33c-0.13,0.59-0.19,1.19-0.21,1.8c-0.01,0.63,0,1.25,0.08,1.82c0.16,1.17,0.62,2.26,1.35,3.17
			c0.72,0.92,1.69,1.65,2.75,2.23c1.06,0.58,2.22,1.03,3.41,1.39c2.38,0.72,4.89,1.09,7.4,1.35c5.03,0.53,10.14,0.47,15.22,0.78
			c-5.09,0.18-10.17,0.53-15.29,0.29c-2.56-0.13-5.13-0.4-7.67-1.03c-1.27-0.32-2.53-0.74-3.74-1.36c-1.2-0.61-2.37-1.42-3.31-2.54
			c-0.95-1.1-1.59-2.52-1.84-3.98c-0.06-0.36-0.1-0.73-0.13-1.1c-0.02-0.35-0.02-0.71-0.03-1.06c0.01-0.72,0.07-1.46,0.21-2.17
			c0.27-1.43,0.83-2.79,1.56-4.01c0.74-1.21,1.64-2.29,2.64-3.24c2-1.89,4.35-3.27,6.78-4.32c2.43-1.05,4.95-1.8,7.49-2.35
			C334.64,181.13,335.91,180.91,337.19,180.72z"/>
		<path d="M451.25,196.55c0-3.78-2.94-6.85-6.54-6.85c-3.61,0-6.54,3.07-6.54,6.85c0,3.78,2.94,6.85,6.54,6.85
			C448.31,203.4,451.25,200.33,451.25,196.55z M449.66,196.55c0,2.86-2.22,5.19-4.96,5.19c-2.73,0-4.96-2.33-4.96-5.19
			c0-2.86,2.22-5.19,4.96-5.19C447.44,191.35,449.66,193.68,449.66,196.55z"/>
		<path d="M70.29,312.91c0.47,1.76,1.02,3.49,1.66,5.22c0.31,0.86,0.7,1.75,1.09,2.54l1.17,2.45c1.67,3.21,3.58,6.28,5.69,9.2
			c4.27,5.79,9.38,10.87,14.97,15.19c5.57,4.36,11.63,7.97,17.88,11.08c6.27,3.07,12.75,5.6,19.33,7.75
			c3.29,1.08,6.6,2.05,9.92,2.96c1.66,0.45,3.32,0.9,4.98,1.33c1.66,0.43,3.36,0.79,5.04,1.19l2.53,0.57
			c0.84,0.19,1.68,0.4,2.54,0.52l5.11,0.85c0.85,0.13,1.7,0.31,2.56,0.4l2.57,0.29c1.72,0.18,3.43,0.4,5.15,0.55l5.17,0.3
			c0.86,0.04,1.72,0.12,2.59,0.13l2.59,0.02l2.59,0.02c0.86,0.01,1.73,0.02,2.59-0.03l5.17-0.2c6.89-0.44,13.75-1.32,20.52-2.67
			c1.69-0.36,3.39-0.68,5.06-1.11l2.52-0.61c0.84-0.21,1.67-0.46,2.5-0.68c3.34-0.91,6.64-1.97,9.9-3.19
			c6.49-2.49,12.79-5.43,18.87-8.84c12.13-6.84,22.77-15.34,32.51-25.47l3.32-3.71l-1.61-0.26l-18.46-2.98l-0.2-0.03l-0.15,0.1
			l-9.47,6.46l-8.7,5.99c-1.48-0.55-2.94-1.17-4.33-1.91c-0.37-0.19-0.73-0.4-1.09-0.61l16.11-11.95l-17.2-4.3l-9.13,6.59
			c-1.16-1.74-2.2-3.57-3.14-5.46c-2.13-4.46-3.84-9.16-5.15-13.99l-0.94-3.64c-0.28-1.22-0.52-2.45-0.8-3.67l-0.2-0.92l-0.16-0.93
			l-0.33-1.85c-0.1-0.62-0.23-1.23-0.31-1.86l-0.25-1.87l-0.25-1.87c-0.07-0.62-0.12-1.25-0.18-1.88c-0.11-1.25-0.25-2.5-0.31-3.76
			c-0.18-2.51-0.26-5.02-0.27-7.54c-0.02-10.08,1.28-20.15,3.41-30.06l0.01-0.04c0.06-0.28-0.1-0.55-0.35-0.63
			c-2.01-0.62-4.02-1.22-6.04-1.81c-1.98-0.59-3.97-1.16-5.96-1.73l0.43-1.31l-1.69-0.4l17.95-9.42c4.53-2.38,6.36-8.18,4.1-12.93
			l-1.79-3.73c-2.27-4.74-7.8-6.67-12.34-4.29l-7.55,3.97L267.8,86.64l44.86,12.08l23.05,24.14v51.97l-18.56,0.51
			c-11.87,0.59-21.14,10.42-21.14,22.37c0,9.51,7.66,17.24,17.07,17.24c0.59,0,1.23-0.04,1.91-0.11l33.15-3.7
			c0.94,2.89,2.56,5.51,4.78,7.59c3.15,2.95,7.23,4.57,11.41,4.57c0.62,0,1.25-0.04,1.88-0.11l79.24-9.19
			c8.68-1.01,15.22-8.66,15.22-17.8c0-3.78-1.5-7.27-4.34-10.1c-4.02-4.01-10.33-6.3-16.45-5.99l-71.51,2.05
			c-11.87,0.61-21.14,10.82-21.14,23.23c0,1.06,0.11,2.11,0.29,3.14l-32.81,3.66c-0.57,0.06-1.12,0.09-1.62,0.09
			c-7.95,0-14.42-6.54-14.42-14.58c0-10.53,8.17-19.18,18.6-19.7l19.05-0.53h111.21V132.2h-21.16l-16.14-16.91h-53.53l-32.43-33.97
			l-67.51-17.55l-70.33,142.21l-41.29,19.24l-29.39-6.91l-10.76,21.36l100.06,26.88l7.92-23.96c1.92,0.77,3.85,1.55,5.78,2.3
			c1.8,0.71,3.61,1.41,5.42,2.1c-2.7,9.65-4.41,19.69-4.61,29.83c-0.05,2.57-0.03,5.15,0.1,7.73c0.03,1.29,0.17,2.57,0.28,3.86
			c0.06,0.64,0.1,1.29,0.17,1.93l0.24,1.92c0.65,5.11,1.62,10.19,3.06,15.13c0.33,1.24,0.75,2.46,1.12,3.69
			c0.42,1.22,0.83,2.44,1.28,3.64c0.91,2.41,1.97,4.76,3.14,7.06c1.2,2.28,2.53,4.5,4.08,6.56c1.55,2.06,3.31,3.97,5.34,5.58
			c4.03,3.15,8.71,5.24,13.53,6.32c4.83,1.08,9.81,1.19,14.63,0.46c-4.86,0.19-9.73-0.3-14.34-1.67c-0.77-0.23-1.52-0.49-2.28-0.77
			l8.94-5.53l9.54-5.95l16.52,3.29c-4.61,4.39-9.47,8.5-14.55,12.26c-2.78,2.02-5.6,3.99-8.51,5.8c-1.44,0.93-2.91,1.8-4.38,2.68
			c-1.47,0.87-2.98,1.68-4.46,2.52c-6.01,3.22-12.26,5.99-18.62,8.29c-6.37,2.26-12.95,3.95-19.59,5.22
			c-6.64,1.26-13.36,2.01-20.1,2.39l-5.06,0.17c-0.84,0.05-1.69,0.03-2.53,0.02l-2.53-0.03l-2.53-0.03c-0.84,0-1.68-0.09-2.53-0.13
			l-5.05-0.31c-1.68-0.16-3.35-0.38-5.03-0.56l-2.51-0.29c-0.84-0.09-1.67-0.27-2.5-0.4l-4.99-0.85c-0.84-0.12-1.65-0.33-2.48-0.52
			l-2.47-0.56c-1.65-0.38-3.29-0.72-4.95-1.14l-4.94-1.3c-3.28-0.89-6.54-1.84-9.77-2.88c-6.46-2.08-12.8-4.53-18.9-7.49
			c-6.1-2.96-12-6.38-17.41-10.52c-5.44-4.09-10.34-8.92-14.52-14.36c-2.06-2.74-3.93-5.64-5.58-8.67l-1.16-2.32
			c-0.4-0.79-0.74-1.52-1.05-2.32c-0.62-1.59-1.18-3.24-1.66-4.92c-0.98-3.35-1.7-6.79-2.22-10.25c-0.51-3.46-0.77-6.97-0.69-10.46
			c0.02-0.87,0.09-1.74,0.13-2.61c0.07-0.87,0.18-1.73,0.27-2.6c0.3-1.72,0.53-3.46,0.99-5.14c0.36-1.71,0.94-3.35,1.46-5.02
			l0.95-2.43l0.24-0.61l0.28-0.59l0.56-1.18c1.51-3.13,3.32-6.12,5.49-8.81c2.15-2.7,4.53-5.24,7.2-7.42l0.98-0.84
			c0.34-0.27,0.69-0.52,1.03-0.78c0.69-0.51,1.38-1.04,2.08-1.54c1.45-0.91,2.86-1.92,4.38-2.72c2.96-1.77,6.12-3.11,9.3-4.41
			c-3.23,1.13-6.47,2.32-9.53,3.95c-1.57,0.73-3.02,1.69-4.53,2.55c-0.73,0.48-1.44,0.98-2.16,1.47c-0.36,0.25-0.72,0.49-1.08,0.74
			l-1.03,0.81c-2.79,2.11-5.33,4.59-7.62,7.3c-0.62,0.71-1.2,1.45-1.77,2.21c-0.12,0.15-0.24,0.3-0.36,0.48
			c-1.4,1.59-5.1,7.41-6.39,10.32l-0.27,0.62l-1.06,2.49c-0.6,1.71-1.24,3.41-1.66,5.18c-0.52,1.74-0.81,3.55-1.16,5.33
			c-0.12,0.91-0.25,1.81-0.35,2.72c-0.07,0.91-0.16,1.82-0.2,2.73C67.41,298.62,68.41,305.91,70.29,312.91z M349.85,205.39
			c0-10.94,8.17-19.92,18.6-20.46l71.51-2.05c0.32-0.02,0.65-0.02,0.97-0.02c5.07,0,10.29,2.01,13.55,5.26
			c2.3,2.3,3.52,5.1,3.52,8.09c0,7.73-5.53,14.2-12.86,15.05l-79.24,9.19c-4.08,0.47-8.17-0.9-11.23-3.77
			C351.6,213.8,349.85,209.69,349.85,205.39z M209.91,243.31l-6.59,19.93l-94.46-25.38l8.25-16.38L209.91,243.31z M184.45,209.92
			l-10.88,22l-24.14-5.68L184.45,209.92z M208.29,216.46l-28.39,14.92c-0.77,0.4-1.48,0.92-2.12,1.53l-1.54-0.36l81.87-165.56
			l64.77,16.84l32.69,34.23h53.53l16.14,16.91h19.62v39.73h-106.5v-53l-24.33-25.49l-47.7-12.84l-0.46,1.05L208.29,216.46z
			 M207.61,239.93l-26.31-6.19l28.96-15.21l0.03,0.01l0.02-0.04l10.49-5.51c3.23-1.69,7.17-0.32,8.79,3.06l1.79,3.73
			c1.62,3.38,0.31,7.51-2.92,9.21L207.61,239.93z M243.86,335.44c-1.52-0.93-2.97-2-4.35-3.11c-1.8-1.55-3.38-3.39-4.77-5.39
			c-0.1-0.14-0.18-0.28-0.28-0.42l8.94-6.45l15.83,3.96L243.86,335.44z"/>
		<path d="M186.76,361.22c-6.89-0.48-13.81-1.9-20.3-4.73c-6.49-2.77-12.55-7.13-16.99-13.08c-2.21-2.97-3.95-6.34-5.17-9.88
			c-1.22-3.55-1.92-7.25-2.17-10.99c-0.48-7.5,1.14-15.11,4.43-21.71c3.31-6.6,8-12.29,13.4-16.92c5.38-4.67,11.45-8.36,17.81-11.19
			c6.38-2.77,13.11-4.7,19.93-5.34c-6.69,1.49-13.14,3.88-19.18,7.06c-3.02,1.58-5.95,3.35-8.74,5.32
			c-2.79,1.97-5.47,4.09-7.95,6.43c-4.94,4.69-9.28,10.11-12.16,16.29c-1.44,3.08-2.56,6.31-3.22,9.65
			c-0.66,3.33-0.87,6.75-0.64,10.15c0.21,3.4,0.81,6.79,1.89,9.98c1.06,3.2,2.62,6.21,4.55,8.93c1.93,2.73,4.26,5.15,6.87,7.23
			c2.61,2.07,5.48,3.83,8.49,5.3c3.01,1.47,6.18,2.61,9.42,3.55c3.24,0.93,6.55,1.6,9.9,2.06c6.7,0.94,13.54,0.99,20.35,0.29
			C200.6,361.17,193.66,361.65,186.76,361.22z"/>
	</g>
</g>
<g>
	<g>
		<text transform="matrix(1 0 0 1 292.0669 295.377)" class="st3 st4">MINITAX</text>
	</g>
</g>
</svg>
